<?xml version="1.0" encoding="UTF-8"?>
<svg version="1.1" xmlns="http://www.w3.org/2000/svg" width="512" height="512">
<path d="M0 0 C0.74865829 -0.00671722 1.49731659 -0.01343445 2.2686615 -0.02035522 C4.73540955 -0.03930033 7.20188496 -0.04325778 9.66870117 -0.04541016 C11.39117035 -0.05184105 13.11363844 -0.05856963 14.83610535 -0.06558228 C18.4447991 -0.0775467 22.05339719 -0.08126401 25.66210938 -0.08007812 C30.27211697 -0.07987511 34.88150691 -0.10716288 39.49136829 -0.14162254 C43.04915651 -0.1639303 46.60679708 -0.16791447 50.16464806 -0.16685867 C51.8634116 -0.16920935 53.56217953 -0.17800268 55.26087379 -0.19352341 C73.11348344 -0.34135471 73.11348344 -0.34135471 80.64135742 6.25537109 C81.18018555 6.90634766 81.71901367 7.55732422 82.27416992 8.22802734 C82.8284668 8.87642578 83.38276367 9.52482422 83.95385742 10.19287109 C87.27839984 15.01795023 87.66701379 19.36180246 87.52416992 25.10302734 C87.51514648 25.79589844 87.50612305 26.48876953 87.49682617 27.20263672 C87.47343149 28.8987513 87.43756633 30.59468605 87.39916992 32.29052734 C88.00341545 32.28900846 88.60766098 32.28748958 89.23021698 32.28592467 C125.04577449 32.19640488 160.86131274 32.12777734 196.67695886 32.08626603 C200.97775466 32.08126322 205.27855024 32.07608593 209.5793457 32.07080078 C210.43555366 32.06975154 211.29176162 32.0687023 212.17391527 32.06762126 C226.03601198 32.05021786 239.89804231 32.01868052 253.76009965 31.98191616 C267.98473024 31.94450495 282.20932607 31.92229111 296.43400383 31.91417336 C305.21082759 31.90868596 313.98746372 31.89135691 322.76422971 31.85886148 C328.7834703 31.83771136 334.80261394 31.83132842 340.82188898 31.83652183 C344.29431566 31.83908286 347.76641455 31.83516776 351.23878288 31.81370544 C355.00661843 31.79381685 358.77364992 31.79858526 362.54150391 31.80950928 C363.63490334 31.79785791 364.72830276 31.78620655 365.85483551 31.77420211 C373.45981759 31.83383562 378.76634764 33.10706113 384.64135742 38.25537109 C385.18018555 38.90634766 385.71901367 39.55732422 386.27416992 40.22802734 C386.8284668 40.87642578 387.38276367 41.52482422 387.95385742 42.19287109 C391.20178505 46.90675525 391.65029319 50.92805838 391.65643883 56.59888935 C391.6599449 57.32826248 391.66345098 58.05763562 391.6670633 58.80911097 C391.67638883 61.26029292 391.67145104 63.7112379 391.66659546 66.16242981 C391.67033114 67.93470967 391.67493233 69.70698789 391.6803261 71.47926348 C391.69258169 76.3552174 391.69229263 81.23110284 391.68993735 86.10706866 C391.68952983 91.36349908 391.70056213 96.61990736 391.71005249 101.87632751 C391.72667743 112.17682613 391.73216271 122.47730185 391.73327725 132.77781276 C391.734227 141.14910126 391.73833367 149.52038221 391.7446785 157.89166832 C391.76229489 181.61674332 391.77151673 205.34180022 391.77001755 229.06688181 C391.76993764 230.34636111 391.76985772 231.6258404 391.76977539 232.9440918 C391.76969363 234.22513016 391.76961187 235.50616852 391.76952763 236.82602622 C391.76871459 257.59081797 391.78785574 278.35553719 391.81605212 299.12030796 C391.84476396 320.43254394 391.85859336 341.74474453 391.85686457 363.05700034 C391.85620009 375.02578682 391.86171797 386.99449729 391.88322067 398.96326637 C391.90141007 409.15324219 391.90579823 419.34310753 391.89220183 429.53309254 C391.88566091 434.73305495 391.88559557 439.93280527 391.90290833 445.13274765 C391.9185943 449.89300148 391.91582122 454.65287428 391.89834006 459.41311856 C391.89526029 461.13517441 391.8989392 462.85725838 391.91006021 464.57928107 C392.01525157 482.02287155 392.01525157 482.02287155 385.43432617 489.53271484 C384.78334961 490.07154297 384.13237305 490.61037109 383.46166992 491.16552734 C382.81327148 491.71982422 382.16487305 492.27412109 381.49682617 492.84521484 C377.20193938 495.80444783 373.48797003 496.54093321 368.31734276 496.54779625 C367.08801596 496.55424514 365.85868916 496.56069403 364.59211004 496.56733835 C363.23095177 496.56439616 361.8697939 496.56126073 360.50863647 496.55795288 C359.06022868 496.5616896 357.6118229 496.56629121 356.16342032 496.57168353 C352.18257672 496.58392676 348.20181708 496.58365149 344.22095895 496.58129478 C339.92766793 496.58088693 335.63440394 496.5919228 331.34112549 496.60140991 C322.9286016 496.61802918 314.51610574 496.62351992 306.10356681 496.62463467 C299.26405416 496.6255849 292.42455077 496.62969395 285.58504105 496.63603592 C266.19148939 496.65365246 246.79795987 496.66287439 227.40440015 496.66137497 C225.83584195 496.6612551 225.83584195 496.6612551 224.2355957 496.66113281 C223.18861223 496.66105105 222.14162875 496.66096929 221.0629185 496.66088505 C204.10246398 496.66007249 187.14209834 496.67920147 170.18166952 496.70740955 C152.76457064 496.73614833 135.34751509 496.74994923 117.93039191 496.74822199 C108.1530028 496.74755834 98.37570682 496.75303973 88.59833908 496.77457809 C80.27163558 496.79280318 71.9450674 496.79712648 63.61835258 496.78355925 C59.37190159 496.77703571 55.1257101 496.77688996 50.87928391 496.79426575 C46.98669306 496.8100294 43.09456673 496.8070996 39.20198698 496.78969748 C37.79885236 496.78663474 36.39568278 496.79023252 34.9925894 496.80141763 C22.04471827 496.8977428 11.92493342 494.38412009 2.39916992 485.29052734 C-7.02715264 475.41622114 -9.2117225 464.98083985 -9.05493164 451.64916992 C-9.05551575 450.3308316 -9.05609985 449.01249329 -9.05670166 447.65420532 C-9.05783937 444.0741681 -9.03448534 440.49467777 -9.00640583 436.91476655 C-8.98123285 433.16054776 -8.97903775 429.40631349 -8.9743042 425.65202332 C-8.96192074 418.55845178 -8.92916265 411.46512973 -8.88890624 404.37166756 C-8.84404343 396.28937671 -8.82216519 388.20707332 -8.8021245 380.12468874 C-8.76042524 363.51315606 -8.69016442 346.90187365 -8.60083008 330.29052734 C-9.2188767 330.15759529 -9.83692331 330.02466324 -10.47369862 329.88770294 C-11.28440154 329.71097801 -12.09510447 329.53425308 -12.93037415 329.35217285 C-13.73404576 329.1779908 -14.53771738 329.00380875 -15.36574268 328.82434845 C-19.77575353 327.7710756 -23.72451251 325.75687856 -27.78833008 323.79052734 C-28.70815674 323.34692871 -29.6279834 322.90333008 -30.57568359 322.44628906 C-38.57997754 318.48160423 -45.66024532 313.88664404 -52.60083008 308.29052734 C-53.46780518 307.60651855 -53.46780518 307.60651855 -54.35229492 306.90869141 C-81.22892085 285.56268761 -98.90883366 254.59739855 -104.22143555 220.64916992 C-104.96783433 214.04157147 -104.9931963 207.43168419 -104.97583008 200.79052734 C-104.97561859 200.04274017 -104.9754071 199.294953 -104.97518921 198.52450562 C-104.94100924 186.39029331 -103.98667881 175.00050047 -100.60083008 163.29052734 C-100.32795166 162.29448486 -100.32795166 162.29448486 -100.04956055 161.27832031 C-91.08530757 129.11435632 -68.42453691 99.86684857 -39.59790039 83.12744141 C-27.45540439 76.29052734 -27.45540439 76.29052734 -24.60083008 76.29052734 C-24.60971252 75.56913574 -24.61859497 74.84774414 -24.62774658 74.10449219 C-24.70816748 67.27878547 -24.76893352 60.45315032 -24.80807877 53.62709045 C-24.82888116 50.11837416 -24.85706171 46.61005201 -24.90258789 43.1015625 C-24.95469365 39.06034742 -24.97383584 35.01954106 -24.99145508 30.97802734 C-25.01210022 29.72876465 -25.03274536 28.47950195 -25.05401611 27.19238281 C-25.05612093 18.96730544 -24.20976171 13.40887079 -18.63598633 7.04833984 C-17.98500977 6.50951172 -17.3340332 5.97068359 -16.66333008 5.41552734 C-16.01493164 4.86123047 -15.3665332 4.30693359 -14.69848633 3.73583984 C-9.97098559 0.47853021 -5.62512386 -0.00729588 0 0 Z M-6.60083008 19.29052734 C-8.40238878 22.83996263 -8.85281914 25.75973887 -8.86152649 29.71080017 C-8.8686113 30.78601425 -8.87569611 31.86122833 -8.88299561 32.96902466 C-8.88051819 34.13851654 -8.87804077 35.30800842 -8.87548828 36.51293945 C-8.88059921 37.75248886 -8.88571014 38.99203827 -8.89097595 40.26914978 C-8.90248398 43.66179105 -8.90494723 47.05418778 -8.90241265 50.44683146 C-8.90134142 53.28228541 -8.90623017 56.11771693 -8.91101807 58.95316607 C-8.92210529 65.6440061 -8.92255505 72.33478999 -8.91650391 79.02563477 C-8.91046347 85.92110327 -8.92277857 92.81636777 -8.94407398 99.71180147 C-8.96170378 105.63892411 -8.96768918 111.5659819 -8.96443623 117.49312979 C-8.96262548 121.03010804 -8.96523871 124.56694074 -8.97915077 128.10389519 C-8.99408795 132.04891814 -8.98474688 135.99368226 -8.97314453 139.9387207 C-8.98078827 141.10618835 -8.98843201 142.27365601 -8.99630737 143.47650146 C-9.02867559 151.35797624 -9.02867559 151.35797624 -5.60083008 158.29052734 C-1.90244576 160.48269624 1.5080332 160.54755648 5.74658203 160.56518555 C7.00816635 160.57471756 8.26975067 160.58424957 9.56956482 160.59407043 C10.93854805 160.59380899 12.3075313 160.59287184 13.67651367 160.59130859 C15.0898908 160.595199 16.50326677 160.59953438 17.91664124 160.60429382 C20.87464188 160.61174214 23.83252313 160.61147484 26.79052734 160.60620117 C30.57112561 160.60040754 34.35123379 160.61734118 38.13175106 160.64054585 C41.04951305 160.65531559 43.96715788 160.65615052 46.88495064 160.65303612 C48.27833591 160.65354768 49.67172802 160.65875432 51.06507683 160.66884804 C53.01746724 160.68125701 54.96995711 160.67245734 56.92236328 160.6628418 C58.03091171 160.66347122 59.13946014 160.66410065 60.28160095 160.66474915 C63.96606795 160.22247894 66.29891658 159.32974072 69.39916992 157.29052734 C71.20072862 153.74109206 71.65115899 150.82131582 71.65986633 146.87025452 C71.66695114 145.79504044 71.67403595 144.71982635 71.68133545 143.61203003 C71.67885803 142.44253815 71.67638062 141.27304626 71.67382812 140.06811523 C71.68149452 138.20879112 71.68149452 138.20879112 71.6893158 136.31190491 C71.70082383 132.91926364 71.70328707 129.52686691 71.7007525 126.13422322 C71.69968127 123.29876927 71.70457002 120.46333775 71.70935792 117.62788862 C71.72044513 110.93704858 71.72089489 104.24626469 71.71484375 97.55541992 C71.70880331 90.65995141 71.72111842 83.76468692 71.74241382 76.86925322 C71.76004362 70.94213057 71.76602903 65.01507279 71.76277608 59.0879249 C71.76096532 55.55094664 71.76357855 52.01411394 71.77749062 48.4771595 C71.7924278 44.53213655 71.78308672 40.58737243 71.77148438 36.64233398 C71.77912811 35.47486633 71.78677185 34.30739868 71.79464722 33.10455322 C71.82701544 25.22307844 71.82701544 25.22307844 68.39916992 18.29052734 C64.70078561 16.09835844 61.29030665 16.03349821 57.05175781 16.01586914 C55.79017349 16.00633713 54.52858917 15.99680511 53.22877502 15.98698425 C51.85979179 15.9872457 50.49080854 15.98818284 49.12182617 15.98974609 C47.70844904 15.98585569 46.29507308 15.9815203 44.88169861 15.97676086 C41.92369797 15.96931255 38.96581671 15.96957985 36.0078125 15.97485352 C32.22721424 15.98064715 28.44710605 15.9637135 24.66658878 15.94050884 C21.74882679 15.9257391 18.83118196 15.92490416 15.91338921 15.92801857 C14.52000393 15.92750701 13.12661182 15.92230037 11.73326302 15.91220665 C9.78087261 15.89979768 7.82838273 15.90859735 5.87597656 15.91821289 C4.76742813 15.91758347 3.6588797 15.91695404 2.51673889 15.91630554 C-1.16772811 16.35857575 -3.50057673 17.25131397 -6.60083008 19.29052734 Z M87.39916992 48.29052734 C87.39916992 57.53052734 87.39916992 66.77052734 87.39916992 76.29052734 C90.26604492 77.73427734 93.13291992 79.17802734 96.08666992 80.66552734 C104.66032348 85.11407975 112.05866109 90.00967202 119.39916992 96.29052734 C120.40206055 97.13099609 121.40495117 97.97146484 122.43823242 98.83740234 C146.99770891 119.98045834 162.75935605 151.18216922 166.39916992 183.29052734 C166.65438658 187.76762077 166.81252337 192.24629581 166.96166992 196.72802734 C167.00485352 197.93652344 167.04803711 199.14501953 167.0925293 200.39013672 C167.19806396 203.35683341 167.30017706 206.32360637 167.39916992 209.29052734 C168.15045166 209.42547607 168.9017334 209.5604248 169.67578125 209.69946289 C170.66344482 209.87775635 171.6511084 210.0560498 172.66870117 210.23974609 C173.64685791 210.41594482 174.62501465 210.59214355 175.6328125 210.77368164 C177.79190025 211.17706958 179.94167429 211.63040119 182.08666992 212.10302734 C187.11180072 210.87044809 188.58010394 207.24153476 191.35620117 203.06396484 C195.42565637 197.53946544 200.8900165 195.07000814 207.39916992 193.29052734 C210.10921832 193.12934503 212.69650784 193.05476552 215.39916992 193.10302734 C216.08495117 193.10367188 216.77073242 193.10431641 217.47729492 193.10498047 C220.67883506 193.13247461 223.45672311 193.30596497 226.55932617 194.13818359 C229.61671429 194.61925247 229.61671429 194.61925247 232.14526367 192.07958984 C233.06347107 191.04319568 233.95979693 189.98712028 234.83666992 188.91552734 C235.3067749 188.36695068 235.77687988 187.81837402 236.26123047 187.25317383 C237.20866281 186.13943429 238.14703505 185.01792037 239.07592773 183.88867188 C240.26444965 182.45323562 241.49724586 181.05473285 242.73510742 179.66162109 C243.38737305 178.89978516 244.03963867 178.13794922 244.71166992 177.35302734 C245.28530273 176.68400391 245.85893555 176.01498047 246.44995117 175.32568359 C247.67615978 173.26266285 247.67615978 173.26266285 246.74291992 170.79443359 C245.48254103 168.44587875 244.14361182 166.32634908 242.58666992 164.16552734 C232.24014607 148.96195562 230.291724 132.12311596 232.68774414 114.12255859 C233.44871997 110.29010047 234.77555164 106.83165327 236.39916992 103.29052734 C236.88514648 102.20900391 237.37112305 101.12748047 237.87182617 100.01318359 C245.86950744 83.80984353 258.61387224 73.54111937 275.39916992 67.29052734 C289.30776268 62.99123349 307.09114673 63.18875344 320.39916992 69.29052734 C321.48069336 69.77650391 322.5622168 70.26248047 323.67651367 70.76318359 C339.87985374 78.76086486 350.1485779 91.50522967 356.39916992 108.29052734 C360.69846378 122.1991201 360.50094382 139.98250415 354.39916992 153.29052734 C353.91319336 154.37205078 353.4272168 155.45357422 352.92651367 156.56787109 C344.99250062 172.64221905 332.1818335 183.25148263 315.39916992 189.29052734 C308.79357984 191.20806683 302.44062674 191.64414751 295.58666992 191.60302734 C294.13200317 191.59565552 294.13200317 191.59565552 292.64794922 191.58813477 C281.02069912 191.39809925 271.7713964 188.45622281 261.39916992 183.29052734 C258.18866849 186.72529174 255.01934322 190.19192438 251.87524414 193.6875 C250.53907107 195.13859367 249.14575808 196.53655532 247.74682617 197.92724609 C245.49215965 200.32066132 243.76625577 202.2961836 242.39916992 205.29052734 C242.87266634 208.23723808 243.9292641 210.47867138 245.21166992 213.16943359 C248.07848814 220.70426175 247.47975002 230.42476365 244.71166992 237.91552734 C240.78867333 246.075907 234.99784149 251.02891708 226.63354492 254.40771484 C218.32709998 256.67493291 207.92957798 256.66048375 200.28588867 252.48193359 C199.35196289 251.8921875 199.35196289 251.8921875 198.39916992 251.29052734 C197.76624023 250.92830078 197.13331055 250.56607422 196.48120117 250.19287109 C188.33425946 245.06846213 185.75840299 237.23077897 183.39916992 228.29052734 C177.45916992 227.63052734 171.51916992 226.97052734 165.39916992 226.29052734 C164.94928711 227.92376953 164.4994043 229.55701172 164.03588867 231.23974609 C158.5198463 250.56780662 151.3057505 268.62834471 138.39916992 284.29052734 C137.97055664 284.82693848 137.54194336 285.36334961 137.1003418 285.91601562 C121.13077854 305.8557589 100.04991026 320.88628698 75.64697266 328.89624023 C74.84807114 329.15941544 74.04916962 329.42259064 73.22605896 329.69374084 C72.62318558 329.89068039 72.02031219 330.08761993 71.39916992 330.29052734 C71.39770336 330.97706327 71.3962368 331.66359921 71.3947258 332.37093925 C71.35760965 349.10671004 71.2985315 365.84224639 71.21526718 382.57784843 C71.17552532 390.67120555 71.14310827 398.76446611 71.12817383 406.85791016 C71.11513204 413.91544885 71.0881033 420.97277467 71.04455686 428.03019345 C71.02199847 431.7641173 71.00625583 435.49777915 71.00728607 439.23177719 C71.00817573 443.40904873 70.97782683 447.58555199 70.94506836 451.76269531 C70.95261391 453.60229073 70.95261391 453.60229073 70.96031189 455.47904968 C70.86975147 462.96232937 69.61480292 468.55960278 66.39916992 475.29052734 C65.726692 476.95485774 65.05931998 478.62126879 64.39916992 480.29052734 C102.89743536 480.35917413 141.3956916 480.4120463 179.89400584 480.44372333 C184.43771949 480.44747551 188.98143302 480.45135847 193.52514648 480.45532227 C194.4297289 480.4561092 195.33431131 480.45689613 196.26630531 480.45770691 C210.91865286 480.47076553 225.57096515 480.49442189 240.22329177 480.52198573 C255.25474349 480.55002723 270.28617673 480.56670094 285.31765354 480.57279283 C294.59500904 480.57691188 303.87226487 480.58992777 313.1495897 480.61427674 C319.50894037 480.63011843 325.86823942 480.63493126 332.2276084 480.63103148 C335.89820309 480.62910748 339.56862344 480.63208427 343.23918724 480.64814377 C347.21771997 480.66542371 351.19602485 480.65949904 355.17459106 480.65129089 C356.33607135 480.66002942 357.49755163 480.66876794 358.69422829 480.67777127 C366.5168553 480.70476115 366.5168553 480.70476115 373.39916992 477.29052734 C375.5183783 473.22981798 375.6505214 469.73142707 375.65364552 465.1952219 C375.65685199 464.48888681 375.66005847 463.78255171 375.66336212 463.05481252 C375.67168013 460.68201294 375.66573159 458.30946459 375.65986633 455.93666077 C375.66288619 454.220703 375.66677484 452.50474658 375.6714589 450.78879255 C375.68176892 446.06859516 375.67954945 441.34847347 375.67527831 436.62826979 C375.67281654 431.53957075 375.68181838 426.4508902 375.6893158 421.36219788 C375.70207994 411.39123463 375.70385437 401.42029829 375.70151553 391.44932825 C375.6997342 383.34690159 375.70147804 375.2444831 375.70573997 367.14205742 C375.70663276 365.41384669 375.70663276 365.41384669 375.70754358 363.6507226 C375.7087553 361.31033266 375.70996943 358.96994272 375.71118595 356.62955277 C375.72206801 334.67032879 375.7198958 312.71112015 375.71380111 290.7518953 C375.70863083 270.65181647 375.71988914 250.55178609 375.73889933 230.45171685 C375.75825909 209.82427863 375.76653703 189.19686335 375.76277608 168.56941599 C375.76086127 156.98412287 375.7633788 145.398871 375.77749062 133.81358528 C375.78938165 123.95148043 375.79083491 114.08944221 375.77870045 104.22733647 C375.77279585 99.19372775 375.77175587 94.16024105 375.78370285 89.12664032 C375.79450785 84.52074478 375.7915228 79.91507393 375.77744117 75.30918913 C375.77477934 73.64100612 375.77720705 71.9728058 375.78517703 70.3046397 C375.79524744 68.04004502 375.78689229 65.77623678 375.77390003 63.51167393 C375.77398256 61.62359307 375.77398256 61.62359307 375.77406675 59.69736916 C375.35142232 55.85662521 374.54713529 53.50054059 372.39916992 50.29052734 C369.06846924 48.38439401 366.20551485 48.04103621 362.41106701 48.04443169 C361.42576101 48.04044959 360.440455 48.03646749 359.42529124 48.03236473 C358.35038992 48.03819041 357.27548861 48.04401609 356.16801453 48.05001831 C355.02034774 48.04830946 353.87268096 48.04660061 352.69023639 48.04483998 C349.50903169 48.0421161 346.32799011 48.04836361 343.14680469 48.0583961 C339.71468608 48.06703505 336.28257504 48.06411012 332.85044861 48.06259155 C326.90550117 48.06154298 320.96059764 48.06781666 315.01566124 48.07906723 C306.42029356 48.09532306 297.8249471 48.10053032 289.22956572 48.10304321 C275.28405391 48.10742018 261.33856551 48.12072935 247.39306641 48.13964844 C233.84651812 48.15800718 220.29997619 48.17216371 206.75341797 48.18066406 C205.91837282 48.18118951 205.08332768 48.18171496 204.22297814 48.18225633 C200.0337914 48.18486641 195.84460461 48.18739382 191.6554178 48.18988013 C156.90331781 48.2106127 122.15124759 48.24638882 87.39916992 48.29052734 Z M-32.60083008 140.29052734 C-50.94964651 160.24760657 -56.71396567 183.70417065 -55.78735352 210.20068359 C-54.6738232 228.64680877 -45.51643369 245.57127359 -33.60083008 259.29052734 C-32.95500977 260.03689453 -32.30918945 260.78326172 -31.64379883 261.55224609 C-16.28561226 278.00975549 6.51496293 287.3109663 28.77807617 288.32177734 C52.46155141 288.11738921 73.81222684 280.27068991 91.39916992 264.29052734 C92.03081055 263.74009766 92.66245117 263.18966797 93.31323242 262.62255859 C108.32283855 248.7438132 117.80721538 227.28378888 118.77807617 207.06005859 C119.53225574 179.60352131 111.37116443 158.72090804 93.29370117 138.10302734 C91.40140326 136.29266398 89.74583834 135.39641805 87.39916992 134.29052734 C87.38515137 135.36367187 87.38515137 135.36367187 87.37084961 136.45849609 C87.31678147 139.73650926 87.23320521 143.01315095 87.14916992 146.29052734 C87.13499023 147.41587891 87.12081055 148.54123047 87.10620117 149.70068359 C86.87676231 157.5474925 85.8517956 163.28949804 80.65307617 169.31396484 C80.09491211 169.75998047 79.53674805 170.20599609 78.96166992 170.66552734 C78.40608398 171.12701172 77.85049805 171.58849609 77.27807617 172.06396484 C72.59735846 175.11956851 68.27975209 175.58816417 62.79833984 175.58105469 C61.6753524 175.59113052 61.6753524 175.59113052 60.52967834 175.60140991 C58.06293029 175.62035502 55.59645489 175.62431247 53.12963867 175.62646484 C51.40716949 175.63289574 49.6847014 175.63962432 47.9622345 175.64663696 C44.35354074 175.65860139 40.74494265 175.6623187 37.13623047 175.66113281 C32.52622287 175.6609298 27.91683294 175.68821757 23.30697155 175.72267723 C19.74918333 175.74498499 16.19154277 175.74896915 12.63369179 175.74791336 C10.93492825 175.75026403 9.23616031 175.75905737 7.53746605 175.77457809 C-10.23401373 175.92173759 -10.23401373 175.92173759 -17.62426758 169.54443359 C-18.0702832 168.98626953 -18.51629883 168.42810547 -18.97583008 167.85302734 C-19.43731445 167.29744141 -19.89879883 166.74185547 -20.37426758 166.16943359 C-23.08788471 162.01258697 -23.86352329 158.25299803 -24.01489258 153.33349609 C-24.05356445 152.22167969 -24.09223633 151.10986328 -24.13208008 149.96435547 C-24.16301758 148.81386719 -24.19395508 147.66337891 -24.22583008 146.47802734 C-24.26450195 145.30820313 -24.30317383 144.13837891 -24.34301758 142.93310547 C-24.43708137 140.05240171 -24.52272885 137.1717008 -24.60083008 134.29052734 C-27.37093166 134.29052734 -30.64096606 138.40633375 -32.60083008 140.29052734 Z M7.39916992 334.29052734 C7.35236746 350.04190442 7.31714076 365.79326261 7.29554558 381.54469204 C7.28525029 388.85900134 7.27122352 396.17326733 7.24829102 403.48754883 C7.22830347 409.86560298 7.21544079 416.24362576 7.21099293 422.62171036 C7.2083946 425.99619786 7.20232417 429.37059562 7.18770981 432.74505424 C7.17315554 436.51994993 7.17119366 440.29466077 7.17211914 444.06958008 C7.16492859 445.1780127 7.15773804 446.28644531 7.15032959 447.4284668 C7.17371845 456.26650137 7.59658725 464.23333221 13.39916992 471.29052734 C18.79781754 476.65061319 23.40001024 479.56314648 31.21166992 479.66552734 C38.0229012 479.5152796 42.41414824 478.12186474 47.37182617 473.41943359 C55.47112191 464.62163596 55.5496414 455.91156561 55.51269531 444.41015625 C55.51284134 443.21934448 55.51298737 442.02853271 55.51313782 440.80163574 C55.51256206 437.55001127 55.50755958 434.29843028 55.50056386 431.04681444 C55.49429683 427.64354677 55.49372388 424.24027817 55.49253845 420.83700562 C55.489435 414.39857439 55.48123493 407.96016023 55.47118896 401.5217365 C55.45999718 394.18921204 55.45450966 386.85668674 55.44949353 379.52415586 C55.43905147 364.4462702 55.42147116 349.36840048 55.39916992 334.29052734 C53.53421875 334.5340242 53.53421875 334.5340242 51.6315918 334.78244019 C47.70686091 335.29487164 43.86086931 335.41975876 39.89916992 335.42333984 C39.21918945 335.42429657 38.53920898 335.4252533 37.83862305 335.42623901 C36.41349189 335.42691379 34.98835752 335.42510903 33.56323242 335.42089844 C31.40430682 335.41554009 29.2455892 335.42086747 27.08666992 335.42724609 C25.69083614 335.42658519 24.29500248 335.42530377 22.89916992 335.42333984 C21.65135742 335.42221191 20.40354492 335.42108398 19.11791992 335.41992188 C15.14405956 335.28165074 11.3402798 334.80509731 7.39916992 334.29052734 Z " fill="#000000" transform="translate(112.600830078125,7.70947265625)"/>
<path d="M0 0 C1.06992187 0.474375 2.13984375 0.94875 3.2421875 1.4375 C19.75466286 9.51889971 30.60523995 22.82755446 37 40 C41.30117326 53.9146728 41.09524021 71.68480263 35 85 C34.2884375 86.60488281 34.2884375 86.60488281 33.5625 88.2421875 C25.53996296 104.63439059 12.16715507 115.82260053 -5 122 C-11.60559008 123.91753949 -17.95854318 124.35362017 -24.8125 124.3125 C-26.26716675 124.30512817 -26.26716675 124.30512817 -27.7512207 124.29760742 C-39.3784708 124.1075719 -48.62777353 121.16569547 -59 116 C-61.43298349 118.62243713 -63.84716438 121.25867575 -66.2265625 123.9296875 C-67.96571019 125.88059984 -69.72837747 127.7239764 -71.5859375 129.5703125 C-73.85826533 131.98223726 -75.60319726 133.99078068 -77 137 C-76.53123413 139.95046751 -75.47110881 142.1856199 -74.1875 144.87890625 C-71.33617842 152.37300473 -71.91474142 162.09220744 -74.625 169.5625 C-78.73621664 178.12993048 -84.99201289 183.57810986 -93.76171875 187.11328125 C-101.99620848 189.36808121 -112.45773209 189.39997829 -120.046875 185.2578125 C-120.69140625 184.84273437 -121.3359375 184.42765625 -122 184 C-123.05960937 183.34644531 -123.05960937 183.34644531 -124.140625 182.6796875 C-130.92164856 178.08366042 -135.00821055 171.96715779 -137 164 C-137 162.68 -137 161.36 -137 160 C-138.04800781 159.93941406 -139.09601563 159.87882813 -140.17578125 159.81640625 C-141.55470048 159.73198262 -142.93360605 159.64733553 -144.3125 159.5625 C-145.00279297 159.52318359 -145.69308594 159.48386719 -146.40429688 159.44335938 C-149.47161535 159.25072585 -152.06968152 158.97677283 -155 158 C-155.07476562 158.59683594 -155.14953125 159.19367188 -155.2265625 159.80859375 C-158.30226747 180.10221574 -168.09549519 200.17109303 -181 216 C-181.63711914 216.80099121 -181.63711914 216.80099121 -182.28710938 217.61816406 C-200.95772808 240.98935462 -225.81794669 257.18423698 -255 264 C-257.81727147 264.77984323 -260.62764413 265.58068638 -263.4375 266.38671875 C-271.12196705 268.22583663 -278.80391364 268.18619431 -286.65063477 268.18530273 C-288.79659024 268.18748383 -290.94202611 268.20566732 -293.08789062 268.22460938 C-300.61369005 268.25631154 -307.67320469 267.86083634 -315 266 C-316.59605663 265.65098033 -318.19241563 265.30334074 -319.7890625 264.95703125 C-330.81617397 262.39774968 -340.84999129 259.00793381 -351 254 C-352.50820313 253.2575 -352.50820313 253.2575 -354.046875 252.5 C-385.47252927 236.16576162 -408.97688876 206.85419762 -419.58886719 173.27246094 C-423.72282476 159.67918677 -425.41208643 146.68251735 -425.375 132.5 C-425.37478851 131.75221283 -425.37457703 131.00442566 -425.37435913 130.23397827 C-425.34017916 118.09976596 -424.38584873 106.70997313 -421 95 C-420.72712158 94.00395752 -420.72712158 94.00395752 -420.44873047 92.98779297 C-411.48447749 60.82382898 -388.82370683 31.57632123 -359.99707031 14.83691406 C-347.85457431 8 -347.85457431 8 -345 8 C-344.70127073 13.10405773 -344.48474514 18.20294998 -344.34082031 23.3137207 C-344.28079997 25.04769545 -344.19914104 26.78107096 -344.09472656 28.51293945 C-343.24931908 42.90558741 -343.24931908 42.90558741 -347.50927734 48.00195312 C-350.57192315 50.2715628 -353.67063957 52.1509814 -357 54 C-376.00681901 69.11365551 -389.13896736 95.04246406 -392 119 C-393.59010845 147.8711064 -387.81368448 175.79423154 -368.4375 198.3125 C-353.79103119 214.46117074 -337.16170147 226.08676906 -316 232 C-314.99324219 232.2990625 -313.98648438 232.598125 -312.94921875 232.90625 C-296.73108654 237.10159917 -279.13085738 236.07273025 -263 232 C-261.94425781 231.75636719 -260.88851562 231.51273438 -259.80078125 231.26171875 C-245.16763667 227.3876993 -230.97670093 219.35537823 -220 209 C-219.05640625 208.1234375 -218.1128125 207.246875 -217.140625 206.34375 C-197.89548839 188.05002925 -186.73812753 162.65128843 -185.875 136.1640625 C-185.30314687 106.91594846 -195.06008665 80.45751184 -215.41894531 59.23901367 C-220.02483208 54.35449213 -220.02483208 54.35449213 -225.58398438 50.75415039 C-228.76864564 49.10624054 -230.73450017 47.8031763 -233 45 C-234.68491509 38.90873486 -233.93521282 32.29894834 -233.625 26.0625 C-233.57479531 24.31197566 -233.52917555 22.56131345 -233.48828125 20.81054688 C-233.37850232 16.53694347 -233.20624909 12.26999073 -233 8 C-220.5233399 11.98579839 -209.72188308 19.33978902 -200 28 C-198.77603516 29.02673828 -198.77603516 29.02673828 -197.52734375 30.07421875 C-177.93806507 46.86946402 -163.70202343 70.10931423 -157 95 C-156.70585205 96.08112061 -156.70585205 96.08112061 -156.40576172 97.18408203 C-152.60401616 111.75381337 -152.54043542 126.01819475 -153 141 C-144.02293669 142.36997841 -144.02293669 142.36997841 -135 142 C-132.41264355 140.01456328 -131.57046379 138.35644406 -130.203125 135.42578125 C-127.52267015 130.02135767 -121.12498243 126.35258369 -115.5390625 124.4609375 C-108.75375932 123.229144 -100.49636917 123.09909506 -93.81640625 124.8203125 C-90.83412841 125.32532532 -90.83412841 125.32532532 -88.47265625 123.0078125 C-87.67730469 122.05648437 -86.88195312 121.10515625 -86.0625 120.125 C-85.63936523 119.62339355 -85.21623047 119.12178711 -84.78027344 118.60498047 C-83.50505752 117.08252881 -82.25233135 115.54133089 -81 114 C-80.25105469 113.154375 -79.50210937 112.30875 -78.73046875 111.4375 C-78.07691406 110.674375 -77.42335938 109.91125 -76.75 109.125 C-75.87601562 108.10792969 -75.87601562 108.10792969 -74.984375 107.0703125 C-73.71862435 104.98079476 -73.71862435 104.98079476 -74.65234375 102.5 C-75.91608457 100.1556692 -77.25674225 98.0341783 -78.8125 95.875 C-89.15902385 80.67142828 -91.10744592 63.83258862 -88.71142578 45.83203125 C-87.95047272 41.99968776 -86.62137154 38.54192472 -85 35 C-84.2884375 33.39511719 -84.2884375 33.39511719 -83.5625 31.7578125 C-75.48110029 15.24533714 -62.17244554 4.39476005 -45 -2 C-31.0853272 -6.30117326 -13.31519737 -6.09524021 0 0 Z " fill="#EFBB5D" transform="translate(433,76)"/>
<path d="M0 0 C15.84 0 31.68 0 48 0 C48 58.08 48 116.16 48 176 C53.28 176 58.56 176 64 176 C64 181.28 64 186.56 64 192 C-15.2 192 -94.4 192 -176 192 C-176 186.72 -176 181.44 -176 176 C-170.72 176 -165.44 176 -160 176 C-160 154.88 -160 133.76 -160 112 C-144.16 112 -128.32 112 -112 112 C-112 133.12 -112 154.24 -112 176 C-101.44 176 -90.88 176 -80 176 C-80 139.04 -80 102.08 -80 64 C-64.16 64 -48.32 64 -32 64 C-32 100.96 -32 137.92 -32 176 C-21.44 176 -10.88 176 0 176 C0 117.92 0 59.84 0 0 Z " fill="#000000" transform="translate(384,216)"/>
<path d="M0 0 C1.06992187 0.474375 2.13984375 0.94875 3.2421875 1.4375 C19.75466286 9.51889971 30.60523995 22.82755446 37 40 C41.30117326 53.9146728 41.09524021 71.68480263 35 85 C34.525625 86.06992188 34.05125 87.13984375 33.5625 88.2421875 C25.53996296 104.63439059 12.16715507 115.82260053 -5 122 C-11.60559008 123.91753949 -17.95854318 124.35362017 -24.8125 124.3125 C-25.78227783 124.30758545 -26.75205566 124.3026709 -27.7512207 124.29760742 C-39.3784708 124.1075719 -48.62777353 121.16569547 -59 116 C-65.61029287 123.13470024 -71.91867105 130.40568342 -78 138 C-78.43570312 137.61328125 -78.87140625 137.2265625 -79.3203125 136.828125 C-83.05744652 133.56015499 -86.8076016 130.65859411 -91 128 C-90.44105221 124.06031959 -88.570597 122.14973006 -85.875 119.3125 C-81.26937106 114.31582309 -81.26937106 114.31582309 -76.8125 109.1875 C-75.92498047 108.15689453 -75.92498047 108.15689453 -75.01953125 107.10546875 C-73.71437872 104.98944637 -73.71437872 104.98944637 -74.6484375 102.49609375 C-75.91554679 100.15596995 -77.25791189 98.032555 -78.8125 95.875 C-89.15902385 80.67142828 -91.10744592 63.83258862 -88.71142578 45.83203125 C-87.95047272 41.99968776 -86.62137154 38.54192472 -85 35 C-84.2884375 33.39511719 -84.2884375 33.39511719 -83.5625 31.7578125 C-75.48110029 15.24533714 -62.17244554 4.39476005 -45 -2 C-31.0853272 -6.30117326 -13.31519737 -6.09524021 0 0 Z " fill="#EFBB5D" transform="translate(433,76)"/>
<path d="M0 0 C15.84 0 31.68 0 48 0 C48 58.08 48 116.16 48 176 C32.16 176 16.32 176 0 176 C0 117.92 0 59.84 0 0 Z " fill="#F0BC5E" transform="translate(384,216)"/>
<path d="M0 0 C15.84 0 31.68 0 48 0 C48 36.96 48 73.92 48 112 C32.16 112 16.32 112 0 112 C0 75.04 0 38.08 0 0 Z " fill="#F0BC5E" transform="translate(304,280)"/>
<path d="M0 0 C15.84 0 31.68 0 48 0 C48 36.96 48 73.92 48 112 C32.16 112 16.32 112 0 112 C0 75.04 0 38.08 0 0 Z " fill="#F0BC5E" transform="translate(120,40)"/>
<path d="M0 0 C26.4 0 52.8 0 80 0 C80 15.84 80 31.68 80 48 C53.6 48 27.2 48 0 48 C0 32.16 0 16.32 0 0 Z M16 16 C16 21.28 16 26.56 16 32 C31.84 32 47.68 32 64 32 C64 26.72 64 21.44 64 16 C48.16 16 32.32 16 16 16 Z " fill="#000000" transform="translate(288,424)"/>
<path d="M0 0 C15.84 0 31.68 0 48 0 C48 21.12 48 42.24 48 64 C32.16 64 16.32 64 0 64 C0 42.88 0 21.76 0 0 Z " fill="#F0BC5E" transform="translate(224,328)"/>
<path d="M0 0 C21.12 0 42.24 0 64 0 C64 15.84 64 31.68 64 48 C42.88 48 21.76 48 0 48 C0 32.16 0 16.32 0 0 Z M16 16 C16 21.28 16 26.56 16 32 C26.56 32 37.12 32 48 32 C48 26.72 48 21.44 48 16 C37.44 16 26.88 16 16 16 Z " fill="#000000" transform="translate(384,424)"/>
<path d="M0 0 C21.12 0 42.24 0 64 0 C64 15.84 64 31.68 64 48 C42.88 48 21.76 48 0 48 C0 32.16 0 16.32 0 0 Z M16 16 C16 21.28 16 26.56 16 32 C26.56 32 37.12 32 48 32 C48 26.72 48 21.44 48 16 C37.44 16 26.88 16 16 16 Z " fill="#000000" transform="translate(208,424)"/>
<path d="M0 0 C2.64285844 1.04889692 4.23241905 2.59223169 6.25195312 4.58222961 C6.96996094 5.26929993 7.68796875 5.95637024 8.42773438 6.66426086 C9.93945312 8.76972961 9.93945312 8.76972961 9.78773499 10.62623596 C8.66308996 13.46806201 7.0490187 15.01972292 4.87866211 17.1710968 C4.01784531 18.03168701 3.1570285 18.89227722 2.27012634 19.77894592 C1.33471512 20.69887329 0.39930389 21.61880066 -0.56445312 22.56660461 C-1.52774763 23.52430181 -2.49038036 24.48266508 -3.45237732 25.44166565 C-5.98247171 27.96032192 -8.52144616 30.469838 -11.06237793 32.97755432 C-13.65508365 35.53953693 -16.23928643 38.11006463 -18.82421875 40.67988586 C-23.89470677 45.71822802 -28.97462568 50.74696295 -34.06054688 55.76972961 C-37.48537395 54.15196845 -39.71745209 52.34629718 -42.38867188 49.63691711 C-43.18789063 48.83125305 -43.98710937 48.02558899 -44.81054688 47.19551086 C-46.04804688 45.93287415 -46.04804688 45.93287415 -47.31054688 44.64472961 C-48.15101563 43.79523743 -48.99148438 42.94574524 -49.85742188 42.07051086 C-51.9297037 39.97468038 -53.9971708 37.87432248 -56.06054688 35.76972961 C-54.45519401 32.35913558 -52.65535787 30.15180477 -49.93554688 27.51972961 C-49.21109375 26.81332336 -48.48664063 26.10691711 -47.74023438 25.37910461 C-47.1859375 24.84801086 -46.63164062 24.31691711 -46.06054688 23.76972961 C-41.76675874 25.69259995 -39.28900987 28.39451831 -36.06054688 31.76972961 C-33.1492604 30.45781317 -31.12737558 29.06858128 -28.91601562 26.77290344 C-28.32860596 26.16920425 -27.74119629 25.56550507 -27.13598633 24.94351196 C-26.51296631 24.2944841 -25.88994629 23.64545624 -25.24804688 22.97676086 C-23.91253803 21.61110717 -22.5765872 20.24588558 -21.24023438 18.88105774 C-19.14147621 16.72635569 -17.04685019 14.56801238 -14.95996094 12.40180969 C-12.94199374 10.31156913 -10.90888813 8.23707531 -8.87304688 6.16426086 C-8.25002686 5.50916031 -7.62700684 4.85405975 -6.98510742 4.17910767 C-6.39769775 3.58486496 -5.81028809 2.99062225 -5.20507812 2.37837219 C-4.69307861 1.84923721 -4.1810791 1.32010223 -3.65356445 0.77493286 C-2.06054688 -0.23027039 -2.06054688 -0.23027039 0 0 Z " fill="#050402" transform="translate(435.060546875,115.23027038574219)"/>
<path d="M0 0 C15.84 0 31.68 0 48 0 C48 5.28 48 10.56 48 16 C32.16 16 16.32 16 0 16 C0 10.72 0 5.44 0 0 Z " fill="#000000" transform="translate(120,136)"/>
<path d="M0 0 C15.84 0 31.68 0 48 0 C48 5.28 48 10.56 48 16 C32.16 16 16.32 16 0 16 C0 10.72 0 5.44 0 0 Z " fill="#F0BC5E" transform="translate(120,120)"/>
<path d="M0 0 C15.84 0 31.68 0 48 0 C48 5.28 48 10.56 48 16 C32.16 16 16.32 16 0 16 C0 10.72 0 5.44 0 0 Z " fill="#000000" transform="translate(120,104)"/>
<path d="M0 0 C15.84 0 31.68 0 48 0 C48 5.28 48 10.56 48 16 C32.16 16 16.32 16 0 16 C0 10.72 0 5.44 0 0 Z " fill="#F0BC5E" transform="translate(120,88)"/>
<path d="M0 0 C15.84 0 31.68 0 48 0 C48 5.28 48 10.56 48 16 C32.16 16 16.32 16 0 16 C0 10.72 0 5.44 0 0 Z " fill="#000000" transform="translate(120,72)"/>
<path d="M0 0 C15.84 0 31.68 0 48 0 C48 5.28 48 10.56 48 16 C32.16 16 16.32 16 0 16 C0 10.72 0 5.44 0 0 Z " fill="#000000" transform="translate(120,40)"/>
<path d="M0 0 C3.52238047 1.56367357 6.27123994 3.69495889 9.25 6.125 C10.14203125 6.84945312 11.0340625 7.57390625 11.953125 8.3203125 C12.62859375 8.87460938 13.3040625 9.42890625 14 10 C12.67959547 12.86499906 11.20848879 15.1219483 9.13671875 17.49609375 C8.57919922 18.13740234 8.02167969 18.77871094 7.44726562 19.43945312 C6.86654297 20.09880859 6.28582031 20.75816406 5.6875 21.4375 C5.11837891 22.09298828 4.54925781 22.74847656 3.96289062 23.42382812 C0.76266173 27.08700632 -2.51504536 30.60658263 -6 34 C-6.53109375 33.44570312 -7.0621875 32.89140625 -7.609375 32.3203125 C-8.31578125 31.59585938 -9.0221875 30.87140625 -9.75 30.125 C-10.44609375 29.40570313 -11.1421875 28.68640625 -11.859375 27.9453125 C-13.85122217 26.13520321 -15.5427658 25.05151914 -18 24 C-17.4373577 20.08829642 -15.61621219 18.196148 -12.9375 15.375 C-8.35839768 10.44365904 -4.14017123 5.30212665 0 0 Z " fill="#010100" transform="translate(360,180)"/>
<path d="M0 0 C1.76586914 0.07006836 1.76586914 0.07006836 4.03515625 0.33984375 C5.24848633 0.4800293 5.24848633 0.4800293 6.48632812 0.62304688 C7.33646484 0.72681641 8.18660156 0.83058594 9.0625 0.9375 C10.34350586 1.08735352 10.34350586 1.08735352 11.65039062 1.24023438 C13.76750514 1.48861094 15.88383163 1.74368731 18 2 C17.34 7.61 16.68 13.22 16 19 C13.586875 18.855625 11.17375 18.71125 8.6875 18.5625 C7.55380981 18.49784546 7.55380981 18.49784546 6.3972168 18.43188477 C3.39405127 18.24164809 0.86798955 17.95599652 -2 17 C-1.85978195 14.35375716 -1.71310224 11.70815422 -1.5625 9.0625 C-1.52318359 8.30775391 -1.48386719 7.55300781 -1.44335938 6.77539062 C-1.11328125 1.11328125 -1.11328125 1.11328125 0 0 Z " fill="#020100" transform="translate(280,217)"/>
<path d="M0 0 C5.28 0 10.56 0 16 0 C16 5.28 16 10.56 16 16 C10.72 16 5.44 16 0 16 C0 10.72 0 5.44 0 0 Z " fill="#000000" transform="translate(200,216)"/>
<path d="M0 0 C5.28 0 10.56 0 16 0 C16 5.28 16 10.56 16 16 C10.72 16 5.44 16 0 16 C0 10.72 0 5.44 0 0 Z " fill="#000000" transform="translate(168,216)"/>
<path d="M0 0 C5.28 0 10.56 0 16 0 C16 5.28 16 10.56 16 16 C10.72 16 5.44 16 0 16 C0 10.72 0 5.44 0 0 Z " fill="#000000" transform="translate(136,216)"/>
<path d="M0 0 C5.28 0 10.56 0 16 0 C16 5.28 16 10.56 16 16 C10.72 16 5.44 16 0 16 C0 10.72 0 5.44 0 0 Z " fill="#000000" transform="translate(104,216)"/>
<path d="M0 0 C5.28 0 10.56 0 16 0 C16 5.28 16 10.56 16 16 C10.72 16 5.44 16 0 16 C0 10.72 0 5.44 0 0 Z " fill="#000000" transform="translate(72,216)"/>
</svg>
