<?xml version="1.0" encoding="UTF-8"?>
<svg version="1.1" xmlns="http://www.w3.org/2000/svg" width="512" height="512">
<path d="M0 0 C1.06077255 -0.00671722 2.1215451 -0.01343445 3.21446228 -0.02035522 C6.72008961 -0.03934785 10.2255256 -0.04326016 13.73120117 -0.04541016 C16.17111795 -0.05183742 18.61103395 -0.05856573 21.0509491 -0.06558228 C26.1661457 -0.07755838 31.28127474 -0.08126277 36.39648438 -0.08007812 C42.94350949 -0.07987497 49.49010035 -0.10717221 56.03702259 -0.14162254 C61.07714315 -0.16388623 66.11715914 -0.16791581 71.15732384 -0.16685867 C73.5705992 -0.16921561 75.9838774 -0.17804428 78.39710426 -0.19352341 C81.77676205 -0.21317076 85.1554826 -0.2073493 88.53515625 -0.1953125 C89.52712006 -0.20655151 90.51908386 -0.21779053 91.54110718 -0.22937012 C98.82624198 -0.16360776 104.17378339 1.40933061 109.70385742 6.25537109 C110.24268555 6.90634766 110.78151367 7.55732422 111.33666992 8.22802734 C111.8909668 8.87642578 112.44526367 9.52482422 113.01635742 10.19287109 C116.64163923 15.45442874 116.75880352 20.17621118 116.75219727 26.36010742 C116.75891449 27.26482285 116.76563171 28.16953827 116.77255249 29.10166931 C116.79152545 32.0878552 116.79545645 35.07381621 116.79760742 38.06005859 C116.80403619 40.14125154 116.81076461 42.22244359 116.81777954 44.30363464 C116.82975081 48.66557917 116.83346055 53.02744451 116.83227539 57.3894043 C116.8320723 62.96791407 116.85936564 68.54591387 116.89381981 74.12430286 C116.91610171 78.42325657 116.92011252 82.72208784 116.91905594 87.02109337 C116.92141028 89.07711226 116.93022438 91.13313461 116.94572067 93.18909645 C116.96540499 96.07067775 116.95953271 98.9511632 116.94750977 101.83276367 C116.95874878 102.67511566 116.96998779 103.51746765 116.98156738 104.38534546 C116.90977548 111.18631439 115.00264808 116.39088229 110.49682617 121.53271484 C109.84584961 122.07154297 109.19487305 122.61037109 108.52416992 123.16552734 C107.87577148 123.71982422 107.22737305 124.27412109 106.55932617 124.84521484 C102.11641046 127.90644169 98.50380943 128.53321173 93.14916992 128.41552734 C92.08053711 128.39748047 91.0119043 128.37943359 89.91088867 128.36083984 C89.10264648 128.33763672 88.2944043 128.31443359 87.46166992 128.29052734 C87.67823242 128.96857422 87.89479492 129.64662109 88.11791992 130.34521484 C90.3696528 137.87184047 92.59202083 145.78052765 88.83666992 153.16552734 C86.46166992 156.29052734 86.46166992 156.29052734 80.46166992 160.29052734 C71.22166992 160.29052734 61.98166992 160.29052734 52.46166992 160.29052734 C52.46166992 181.41052734 52.46166992 202.53052734 52.46166992 224.29052734 C58.40166992 224.29052734 64.34166992 224.29052734 70.46166992 224.29052734 C70.62989258 222.10943359 70.62989258 222.10943359 70.80151367 219.88427734 C71.33157403 214.64082813 72.47158408 209.81669507 74.02416992 204.79052734 C74.28810547 203.93104492 74.55204102 203.0715625 74.82397461 202.18603516 C86.56209299 165.20756975 112.17919239 132.85804165 146.46166992 114.29052734 C147.12166992 114.29052734 147.78166992 114.29052734 148.46166992 114.29052734 C148.46166992 102.74052734 148.46166992 91.19052734 148.46166992 79.29052734 C146.81166992 78.63052734 145.16166992 77.97052734 143.46166992 77.29052734 C138.34028185 73.73557116 133.61978688 69.65454866 132.46166992 63.29052734 C131.71750128 55.39668782 131.29049686 47.729286 136.46166992 41.29052734 C141.26615631 36.24531512 145.62344047 32.68489739 152.73120117 31.95458984 C161.24743565 31.86069531 167.13762486 32.17279855 173.42651367 38.16162109 C179.80833672 45.06547466 180.94209244 50.49220664 180.76635742 59.84521484 C180.06617819 67.76262617 176.34747592 71.89625228 170.46166992 76.94287109 C168.46166992 78.29052734 168.46166992 78.29052734 164.46166992 79.29052734 C164.46166992 88.20052734 164.46166992 97.11052734 164.46166992 106.29052734 C167.76166992 104.97052734 171.06166992 103.65052734 174.46166992 102.29052734 C177.96517665 101.20692296 181.50912916 100.40578 185.08666992 99.60302734 C186.3918457 99.28495117 186.3918457 99.28495117 187.72338867 98.96044922 C196.15551814 97.0374384 203.51127141 96.84992725 212.46166992 96.29052734 C212.46166992 80.12052734 212.46166992 63.95052734 212.46166992 47.29052734 C210.81166992 46.63052734 209.16166992 45.97052734 207.46166992 45.29052734 C202.34028185 41.73557116 197.61978688 37.65454866 196.46166992 31.29052734 C195.71750128 23.39668782 195.29049686 15.729286 200.46166992 9.29052734 C205.26615631 4.24531512 209.62344047 0.68489739 216.73120117 -0.04541016 C225.24743565 -0.13930469 231.13762486 0.17279855 237.42651367 6.16162109 C243.80833672 13.06547466 244.94209244 18.49220664 244.76635742 27.84521484 C244.06617819 35.76262617 240.34747592 39.89625228 234.46166992 44.94287109 C232.46166992 46.29052734 232.46166992 46.29052734 228.46166992 47.29052734 C228.46166992 63.46052734 228.46166992 79.63052734 228.46166992 96.29052734 C233.74166992 96.62052734 239.02166992 96.95052734 244.46166992 97.29052734 C247.58279601 97.89018814 250.4455528 98.47847699 253.46166992 99.35302734 C254.15260742 99.53929688 254.84354492 99.72556641 255.55541992 99.91748047 C257.19461779 100.36142989 258.82884166 100.8236948 260.46166992 101.29052734 C260.46166992 99.31052734 260.46166992 97.33052734 260.46166992 95.29052734 C259.80166992 95.10490234 259.14166992 94.91927734 258.46166992 94.72802734 C252.98058376 92.10167356 248.78007389 88.30933341 245.46166992 83.22802734 C243.12848431 76.48771336 243.0841021 67.40109278 245.96166992 60.85302734 C249.48163774 55.02816956 254.95129926 50.30836152 261.46166992 48.29052734 C269.297752 47.48538629 277.08089569 47.16592343 283.46166992 52.29052734 C288.50688214 57.09501373 292.06729987 61.45229789 292.79760742 68.56005859 C292.8918668 77.10938462 292.56668547 82.98362579 286.55541992 89.29052734 C283.32900624 92.27616389 280.87631398 94.51205216 276.46166992 95.29052734 C275.72990705 99.3944346 275.76792865 102.44389807 277.46166992 106.29052734 C281.09306191 109.11996711 285.55052908 110.58773352 289.78198242 112.29833984 C294.37605753 114.15987957 298.40941468 116.54447985 302.52416992 119.29052734 C303.42558716 119.88824951 303.42558716 119.88824951 304.34521484 120.49804688 C305.72331702 121.42004103 307.09350805 122.353846 308.46166992 123.29052734 C309.00456161 122.59041534 309.54745331 121.89030334 310.10679626 121.16897583 C312.46166992 118.29052734 312.46166992 118.29052734 315.21803284 115.44699097 C324.43454346 105.60138307 324.96147349 97.24380262 324.61401367 84.17333984 C324.60575664 82.26196838 324.60297535 80.35056628 324.60536194 78.43917847 C324.5997393 73.44675001 324.53223481 68.45727548 324.4473877 63.46563721 C324.32081482 55.45902154 324.28512112 47.45170703 324.25830269 39.44424057 C324.23936791 36.6628748 324.19096254 33.88322897 324.13816833 31.10232544 C324.12149698 29.38918741 324.10551509 27.67604249 324.09033203 25.96289062 C324.06802017 25.20013321 324.04570831 24.43737579 324.02272034 23.65150452 C324.0047199 17.09354169 326.09962129 11.98598642 330.42651367 7.04833984 C331.07749023 6.50951172 331.7284668 5.97068359 332.39916992 5.41552734 C333.04756836 4.86123047 333.6959668 4.30693359 334.36401367 3.73583984 C339.62557132 0.11055804 344.34735375 -0.00660626 350.53125 0 C351.88832314 -0.01007584 351.88832314 -0.01007584 353.27281189 -0.02035522 C356.25899778 -0.03932819 359.24495879 -0.04325918 362.23120117 -0.04541016 C364.31239412 -0.05183893 366.39358617 -0.05856735 368.47477722 -0.06558228 C372.83672175 -0.07755354 377.19858708 -0.08126328 381.56054688 -0.08007812 C387.13905665 -0.07987503 392.71705645 -0.10716837 398.29544544 -0.14162254 C402.59439915 -0.16390444 406.89323042 -0.16791525 411.19223595 -0.16685867 C413.24825484 -0.16921302 415.30427719 -0.17802712 417.36023903 -0.19352341 C420.24182033 -0.21320773 423.12230578 -0.20733545 426.00390625 -0.1953125 C427.26743423 -0.21217102 427.26743423 -0.21217102 428.55648804 -0.22937012 C435.35745696 -0.15757821 440.56202487 1.74954919 445.70385742 6.25537109 C446.24268555 6.90634766 446.78151367 7.55732422 447.33666992 8.22802734 C447.8909668 8.87642578 448.44526367 9.52482422 449.01635742 10.19287109 C452.4477781 15.17306813 452.71460241 19.6650078 452.57421875 25.57470703 C452.55176037 27.27829806 452.52945408 28.9818911 452.50727844 30.68548584 C452.49199915 31.58510796 452.47671986 32.48473007 452.46097755 33.41161346 C452.38845727 38.21604561 452.37875623 43.02079873 452.3581543 47.82568359 C452.32867125 53.92219791 452.281299 60.01679099 452.16357422 66.11230469 C452.06980869 71.05314031 452.04134228 75.99080941 452.0539608 80.93247223 C452.04722059 82.79984734 452.01763498 84.66730621 451.96311378 86.5338974 C451.55858218 100.97695898 455.17072182 109.03861842 465.06376171 119.60144424 C469.16105915 124.55218121 469.00032681 129.50140968 468.90307617 135.73193359 C468.24973107 140.99916712 466.33021754 144.67180766 462.46166992 148.29052734 C456.25645942 152.79109048 451.14454609 152.82565046 443.62182617 152.68115234 C442.12854797 152.67510986 442.12854797 152.67510986 440.60510254 152.66894531 C436.91126896 152.64812785 433.21769957 152.59228279 429.52416992 152.54052734 C421.25354492 152.45802734 412.98291992 152.37552734 404.46166992 152.29052734 C404.46166992 181.33052734 404.46166992 210.37052734 404.46166992 240.29052734 C393.90166992 240.29052734 383.34166992 240.29052734 372.46166992 240.29052734 C372.46166992 245.57052734 372.46166992 250.85052734 372.46166992 256.29052734 C383.02166992 256.29052734 393.58166992 256.29052734 404.46166992 256.29052734 C404.46166992 277.41052734 404.46166992 298.53052734 404.46166992 320.29052734 C419.56938329 320.13263338 419.56938329 320.13263338 434.67651367 319.93017578 C436.58405661 319.91848276 438.4916096 319.90829239 440.39916992 319.89990234 C441.37305664 319.87943848 442.34694336 319.85897461 443.3503418 319.83789062 C450.74364404 319.83414149 456.09087671 321.33667894 461.70385742 326.25537109 C462.24268555 326.90634766 462.78151367 327.55732422 463.33666992 328.22802734 C463.8909668 328.87642578 464.44526367 329.52482422 465.01635742 330.19287109 C467.93811173 334.43336315 468.71251415 338.12259722 468.72909546 343.22883606 C468.74189041 345.01401894 468.74189041 345.01401894 468.75494385 346.83526611 C468.75403748 348.13252625 468.7531311 349.42978638 468.75219727 350.76635742 C468.7581849 352.15311545 468.76499099 353.53987015 468.77255249 354.92662048 C468.79019704 358.68709009 468.79490724 362.44746863 468.79618406 366.20797563 C468.79760723 368.55974346 468.80187999 370.91148825 468.8071785 373.26325035 C468.82567448 381.47458741 468.83384975 389.6858596 468.83227539 397.8972168 C468.83107448 405.54022094 468.85216787 413.18294246 468.88376272 420.8258751 C468.90995369 427.39676067 468.92064149 433.96755409 468.91936457 440.53849143 C468.91885571 444.45899279 468.92449626 448.37924298 468.94572067 452.29969215 C468.96515059 455.98932797 468.96519559 459.67847427 468.95068741 463.36812782 C468.94761475 465.35851042 468.96424293 467.34889331 468.98156738 469.33920288 C468.92400209 477.56388708 468.07049527 483.17230518 462.49682617 489.53271484 C461.84584961 490.07154297 461.19487305 490.61037109 460.52416992 491.16552734 C459.87577148 491.71982422 459.22737305 492.27412109 458.55932617 492.84521484 C453.29776853 496.47049665 448.57598609 496.58766094 442.39208984 496.58105469 C441.48737442 496.58777191 440.582659 496.59448914 439.65052795 496.60140991 C436.66434207 496.62038287 433.67838106 496.62431387 430.69213867 496.62646484 C428.61094572 496.63289361 426.52975368 496.63962203 424.44856262 496.64663696 C420.0866181 496.65860823 415.72475276 496.66231797 411.36279297 496.66113281 C405.7842832 496.66092972 400.2062834 496.68822306 394.6278944 496.72267723 C390.3289407 496.74495913 386.03010943 496.74896994 381.7311039 496.74791336 C379.67508501 496.7502677 377.61906266 496.7590818 375.56310081 496.77457809 C372.68151951 496.79426241 369.80103406 496.78839013 366.91943359 496.77636719 C366.0770816 496.7876062 365.23472961 496.79884521 364.36685181 496.8104248 C357.56588288 496.7386329 352.36131497 494.8315055 347.21948242 490.32568359 C346.6806543 489.67470703 346.14182617 489.02373047 345.58666992 488.35302734 C345.03237305 487.70462891 344.47807617 487.05623047 343.90698242 486.38818359 C341.04024333 482.22753794 340.21117058 478.57606261 340.18319702 473.56413269 C340.1664518 471.84995651 340.1664518 471.84995651 340.14936829 470.10115051 C340.1472081 468.85677719 340.14504791 467.61240387 340.14282227 466.33032227 C340.13277664 465.01286011 340.12273102 463.69539795 340.11238098 462.3380127 C340.08511518 458.73306416 340.06994178 455.12815463 340.05695295 451.52313018 C340.04130741 447.75278619 340.01452173 443.98252167 339.98892212 440.2122345 C339.94215952 433.07611353 339.90540324 425.93997756 339.87224925 418.80378181 C339.83401005 410.67801559 339.7846046 402.55232924 339.73426509 394.42663038 C339.6309827 377.71465342 339.54171032 361.00263212 339.46166992 344.29052734 C338.6643042 345.16225586 337.86693848 346.03398437 337.04541016 346.93212891 C335.97462112 348.09855554 334.90373368 349.26489186 333.83276367 350.43115234 C333.31016968 351.0030127 332.78757568 351.57487305 332.24914551 352.1640625 C316.94480972 368.80819167 298.39736862 381.69193681 277.46166992 390.29052734 C277.13166992 393.92052734 276.80166992 397.55052734 276.46166992 401.29052734 C278.11166992 401.95052734 279.76166992 402.61052734 281.46166992 403.29052734 C286.58305799 406.84548353 291.30355297 410.92650603 292.46166992 417.29052734 C293.20583856 425.18436687 293.63284298 432.85176868 288.46166992 439.29052734 C283.65718353 444.33573956 279.29989937 447.89615729 272.19213867 448.62646484 C263.6759042 448.72035938 257.78571498 448.40825614 251.49682617 442.41943359 C245.11500312 435.51558003 243.9812474 430.08884805 244.15698242 420.73583984 C244.85716165 412.81842852 248.57586392 408.68480241 254.46166992 403.63818359 C256.49594716 402.26743038 258.06319104 401.7134734 260.46166992 401.29052734 C260.46166992 399.31052734 260.46166992 397.33052734 260.46166992 395.29052734 C259.00760742 395.70625 259.00760742 395.70625 257.52416992 396.13037109 C256.17022205 396.49706531 254.81604194 396.8629028 253.46166992 397.22802734 C252.83260742 397.41042969 252.20354492 397.59283203 251.55541992 397.78076172 C243.70028399 399.85784093 237.01628719 399.75586376 228.46166992 400.29052734 C228.46166992 416.46052734 228.46166992 432.63052734 228.46166992 449.29052734 C230.11166992 449.95052734 231.76166992 450.61052734 233.46166992 451.29052734 C238.58305799 454.84548353 243.30355297 458.92650603 244.46166992 465.29052734 C245.20583856 473.18436687 245.63284298 480.85176868 240.46166992 487.29052734 C235.65718353 492.33573956 231.29989937 495.89615729 224.19213867 496.62646484 C215.6759042 496.72035938 209.78571498 496.40825614 203.49682617 490.41943359 C197.11500312 483.51558003 195.9812474 478.08884805 196.15698242 468.73583984 C196.85716165 460.81842852 200.57586392 456.68480241 206.46166992 451.63818359 C208.46166992 450.29052734 208.46166992 450.29052734 212.46166992 449.29052734 C212.46166992 433.12052734 212.46166992 416.95052734 212.46166992 400.29052734 C207.18166992 399.96052734 201.90166992 399.63052734 196.46166992 399.29052734 C192.59078261 398.61525582 188.88546024 397.90380661 185.08666992 396.97802734 C183.74668945 396.67735352 183.74668945 396.67735352 182.37963867 396.37060547 C175.98192634 394.87099655 170.76111545 392.81030556 164.46166992 390.29052734 C164.46166992 399.20052734 164.46166992 408.11052734 164.46166992 417.29052734 C166.11166992 417.95052734 167.76166992 418.61052734 169.46166992 419.29052734 C174.58305799 422.84548353 179.30355297 426.92650603 180.46166992 433.29052734 C181.20583856 441.18436687 181.63284298 448.85176868 176.46166992 455.29052734 C171.65718353 460.33573956 167.29989937 463.89615729 160.19213867 464.62646484 C151.6759042 464.72035938 145.78571498 464.40825614 139.49682617 458.41943359 C133.11500312 451.51558003 131.9812474 446.08884805 132.15698242 436.73583984 C132.85716165 428.81842852 136.57586392 424.68480241 142.46166992 419.63818359 C144.46166992 418.29052734 144.46166992 418.29052734 148.46166992 417.29052734 C148.46166992 405.74052734 148.46166992 394.19052734 148.46166992 382.29052734 C146.81166992 381.63052734 145.16166992 380.97052734 143.46166992 380.29052734 C127.36571644 371.31343459 112.91447663 358.67965101 101.46166992 344.29052734 C101.46020336 344.97890686 101.4587368 345.66728638 101.4572258 346.37652588 C101.42013523 363.14497595 101.36109085 379.91319148 101.27776718 396.68147278 C101.23799856 404.79058148 101.20559506 412.89959343 101.19067383 421.00878906 C101.17764597 428.07876054 101.15065254 435.14851896 101.10705686 442.21837044 C101.0844673 445.96005549 101.06875772 449.70147802 101.06978607 453.4432373 C101.0706734 457.62570711 101.04037486 461.80740477 101.00756836 465.98974609 C101.01511391 467.84012733 101.01511391 467.84012733 101.02281189 469.72789001 C100.92524989 477.77045182 99.94700663 483.31322462 94.49682617 489.53271484 C93.52036133 490.34095703 93.52036133 490.34095703 92.52416992 491.16552734 C91.87577148 491.71982422 91.22737305 492.27412109 90.55932617 492.84521484 C85.29776853 496.47049665 80.57598609 496.58766094 74.39208984 496.58105469 C73.48737442 496.58777191 72.582659 496.59448914 71.65052795 496.60140991 C68.66434207 496.62038287 65.67838106 496.62431387 62.69213867 496.62646484 C60.61094572 496.63289361 58.52975368 496.63962203 56.44856262 496.64663696 C52.0866181 496.65860823 47.72475276 496.66231797 43.36279297 496.66113281 C37.7842832 496.66092972 32.2062834 496.68822306 26.6278944 496.72267723 C22.3289407 496.74495913 18.03010943 496.74896994 13.7311039 496.74791336 C11.67508501 496.7502677 9.61906266 496.7590818 7.56310081 496.77457809 C4.68151951 496.79426241 1.80103406 496.78839013 -1.08056641 496.77636719 C-1.9229184 496.7876062 -2.76527039 496.79884521 -3.63314819 496.8104248 C-10.43411712 496.7386329 -15.63868503 494.8315055 -20.78051758 490.32568359 C-21.3193457 489.67470703 -21.85817383 489.02373047 -22.41333008 488.35302734 C-22.96762695 487.70462891 -23.52192383 487.05623047 -24.09301758 486.38818359 C-27.01477188 482.14769154 -27.7891743 478.45845747 -27.80575562 473.35221863 C-27.81428558 472.16209671 -27.82281555 470.97197479 -27.831604 469.74578857 C-27.83069763 468.44852844 -27.82979126 467.15126831 -27.82885742 465.81469727 C-27.83484505 464.42793924 -27.84165114 463.04118454 -27.84921265 461.6544342 C-27.86685719 457.8939646 -27.8715674 454.13358606 -27.87284422 450.37307906 C-27.87426739 448.02131123 -27.87854015 445.66956644 -27.88383865 443.31780434 C-27.90233464 435.10646728 -27.91050991 426.89519509 -27.90893555 418.68383789 C-27.90773464 411.04083375 -27.92882802 403.39811223 -27.96042287 395.75517958 C-27.98661385 389.18429402 -27.99730165 382.61350059 -27.99602473 376.04256326 C-27.99551587 372.12206189 -28.00115641 368.20181171 -28.02238083 364.28136253 C-28.04181075 360.59172671 -28.04185574 356.90258042 -28.02734756 353.21292686 C-28.0242749 351.22254427 -28.04090309 349.23216138 -28.05822754 347.24185181 C-28.00066225 339.01716761 -27.14715542 333.40874951 -21.57348633 327.04833984 C-20.59702148 326.24009766 -20.59702148 326.24009766 -19.60083008 325.41552734 C-18.95243164 324.86123047 -18.3040332 324.30693359 -17.63598633 323.73583984 C-13.78412058 321.08185413 -10.31298225 320.03837288 -5.65625 320.06347656 C-4.2258136 320.06383911 -4.2258136 320.06383911 -2.76647949 320.06420898 C-1.77724487 320.07444092 -0.78801025 320.08467285 0.23120117 320.09521484 C1.15010132 320.097229 2.06900146 320.09924316 3.01574707 320.10131836 C6.43527242 320.11175105 9.85472639 320.1396736 13.27416992 320.16552734 C20.92604492 320.20677734 28.57791992 320.24802734 36.46166992 320.29052734 C36.46166992 299.17052734 36.46166992 278.05052734 36.46166992 256.29052734 C47.02166992 256.29052734 57.58166992 256.29052734 68.46166992 256.29052734 C68.46166992 251.01052734 68.46166992 245.73052734 68.46166992 240.29052734 C57.90166992 240.29052734 47.34166992 240.29052734 36.46166992 240.29052734 C36.46166992 213.89052734 36.46166992 187.49052734 36.46166992 160.29052734 C27.22166992 160.29052734 17.98166992 160.29052734 8.46166992 160.29052734 C0.06656503 154.29402385 0.06656503 154.29402385 -1.53833008 149.29052734 C-2.46342509 141.88976728 -0.78066919 135.31118431 1.46166992 128.29052734 C0.68823242 128.33693359 -0.08520508 128.38333984 -0.88208008 128.43115234 C-7.7030159 128.66752141 -13.00992456 128.55869418 -18.53833008 124.29052734 C-23.80758442 119.29256134 -27.54169376 114.64843738 -27.80575562 107.17448425 C-27.82366845 105.52338447 -27.83062139 103.87214328 -27.82885742 102.22094727 C-27.83557465 101.31623184 -27.84229187 100.41151642 -27.84921265 99.47938538 C-27.86818561 96.49319949 -27.8721166 93.50723848 -27.87426758 90.52099609 C-27.88069635 88.43980314 -27.88742477 86.3586111 -27.8944397 84.27742004 C-27.90641097 79.91547552 -27.91012071 75.55361018 -27.90893555 71.19165039 C-27.90873245 65.61314062 -27.93602579 60.03514082 -27.97047997 54.45675182 C-27.99276186 50.15779812 -27.99677267 45.85896685 -27.99571609 41.55996132 C-27.99807044 39.50394243 -28.00688454 37.44792008 -28.02238083 35.39195824 C-28.04206515 32.51037693 -28.03619287 29.62989148 -28.02416992 26.74829102 C-28.03540894 25.90593903 -28.04664795 25.06358704 -28.05822754 24.19570923 C-27.98643563 17.3947403 -26.07930823 12.19017239 -21.57348633 7.04833984 C-20.92250977 6.50951172 -20.2715332 5.97068359 -19.60083008 5.41552734 C-18.95243164 4.86123047 -18.3040332 4.30693359 -17.63598633 3.73583984 C-11.96442103 -0.17194258 -6.66978817 -0.0060572 0 0 Z M-9.53833008 19.29052734 C-17.09399832 38.17969795 -11.53833008 59.94626798 -11.53833008 80.29052734 C25.42166992 80.29052734 62.38166992 80.29052734 100.46166992 80.29052734 C103.58828375 48.19833197 103.58828375 48.19833197 97.46166992 18.29052734 C93.16733855 15.52334438 88.12144446 16.00179296 83.17675781 16.01586914 C81.78560509 16.00820274 81.78560509 16.00820274 80.36634827 16.00038147 C77.30560829 15.98650006 74.24509385 15.98744111 71.18432617 15.98974609 C69.05350155 15.98585849 66.9226777 15.98152368 64.79185486 15.97676086 C60.32735684 15.96930186 55.86293791 15.96958773 51.3984375 15.97485352 C45.6808107 15.98064892 39.96350775 15.96371371 34.24593449 15.94050884 C29.84584159 15.92576877 25.44582664 15.92490017 21.04571342 15.92801857 C18.93781327 15.92750554 16.82990873 15.92227121 14.72203255 15.91220665 C11.77313379 15.89985391 8.82486543 15.90662706 5.87597656 15.91821289 C4.57361053 15.90674728 4.57361053 15.90674728 3.24493408 15.89505005 C-1.70598587 15.93798788 -5.35680815 16.34103246 -9.53833008 19.29052734 Z M342.46166992 19.29052734 C340.08638728 23.19857602 340.21887747 26.97328237 340.23461914 31.4675293 C340.23437807 32.18180934 340.234137 32.89608938 340.23388863 33.63201427 C340.23537463 35.93107495 340.25057428 38.22980636 340.26635742 40.52880859 C340.26930008 41.95340824 340.27133915 43.37801006 340.27246094 44.8026123 C340.28292251 50.06945042 340.31084507 55.33624216 340.33666992 60.60302734 C340.37791992 72.37990234 340.41916992 84.15677734 340.46166992 96.29052734 C372.14166992 96.29052734 403.82166992 96.29052734 436.46166992 96.29052734 C436.52354492 84.53427734 436.58541992 72.77802734 436.64916992 60.66552734 C436.67648193 56.96124512 436.70379395 53.25696289 436.73193359 49.44042969 C436.74197041 46.10347402 436.74197041 46.10347402 436.7480011 42.76651001 C436.75259074 41.28674611 436.76310651 39.80699304 436.77839661 38.32730103 C436.8004625 36.07835571 436.80338448 33.83009257 436.80224609 31.58105469 C436.80890793 30.31530609 436.81556976 29.0495575 436.82243347 27.74545288 C436.41781076 23.87050116 435.63122245 21.52368531 433.46166992 18.29052734 C429.46861409 15.82489233 425.21171615 16.00017178 420.64550781 16.01586914 C419.48844078 16.00820274 419.48844078 16.00820274 418.30799866 16.00038147 C415.76669483 15.98651993 413.22566324 15.98743958 410.68432617 15.98974609 C408.91222534 15.98585737 407.14012544 15.98152233 405.36802673 15.97676086 C401.65677873 15.96930613 397.94562587 15.96958459 394.234375 15.97485352 C389.48526906 15.98064821 384.73655311 15.96371361 379.98751163 15.94050884 C376.32858514 15.92575696 372.66975228 15.92490176 369.01080132 15.92801857 C367.26015894 15.92750612 365.50951123 15.9222828 363.75889778 15.91220665 C361.30808491 15.89983072 358.85802789 15.90664038 356.40722656 15.91821289 C355.32927826 15.90674728 355.32927826 15.90674728 354.22955322 15.89505005 C349.58934137 15.94332963 346.31540302 16.66717888 342.46166992 19.29052734 Z M215.08666992 18.91552734 C212.97460486 22.00239166 212.84971847 23.61881865 213.46166992 27.29052734 C214.96166992 29.79052734 214.96166992 29.79052734 217.46166992 31.29052734 C221.13337862 31.90247879 222.74980561 31.7775924 225.83666992 29.66552734 C227.94873498 26.57866303 228.07362137 24.96223604 227.46166992 21.29052734 C225.96166992 18.79052734 225.96166992 18.79052734 223.46166992 17.29052734 C219.78996122 16.67857589 218.17353424 16.80346229 215.08666992 18.91552734 Z M151.08666992 50.91552734 C148.97460486 54.00239166 148.84971847 55.61881865 149.46166992 59.29052734 C150.96166992 61.79052734 150.96166992 61.79052734 153.46166992 63.29052734 C157.13337862 63.90247879 158.74980561 63.7775924 161.83666992 61.66552734 C163.94873498 58.57866303 164.07362137 56.96223604 163.46166992 53.29052734 C161.96166992 50.79052734 161.96166992 50.79052734 159.46166992 49.29052734 C155.78996122 48.67857589 154.17353424 48.80346229 151.08666992 50.91552734 Z M263.08666992 66.91552734 C260.97460486 70.00239166 260.84971847 71.61881865 261.46166992 75.29052734 C262.96166992 77.79052734 262.96166992 77.79052734 265.46166992 79.29052734 C269.13337862 79.90247879 270.74980561 79.7775924 273.83666992 77.66552734 C275.94873498 74.57866303 276.07362137 72.96223604 275.46166992 69.29052734 C273.96166992 66.79052734 273.96166992 66.79052734 271.46166992 65.29052734 C267.78996122 64.67857589 266.17353424 64.80346229 263.08666992 66.91552734 Z M-11.53833008 96.29052734 C-11.79146253 104.09770645 -11.79146253 104.09770645 -8.53833008 110.29052734 C-3.98034958 112.86189846 0.66355126 112.57965555 5.74658203 112.56518555 C7.13773476 112.57285194 7.13773476 112.57285194 8.55699158 112.58067322 C11.61773155 112.59455463 14.67824599 112.59361358 17.73901367 112.59130859 C19.86983829 112.5951962 22.00066214 112.599531 24.13148499 112.60429382 C28.595983 112.61175283 33.06040193 112.61146696 37.52490234 112.60620117 C43.24252915 112.60040576 48.9598321 112.61734098 54.67740536 112.64054585 C59.07749826 112.65528592 63.4775132 112.65615452 67.87762642 112.65303612 C69.98552657 112.65354915 72.09343111 112.65878348 74.2013073 112.66884804 C77.15020606 112.68120077 80.09847442 112.67442762 83.04736328 112.6628418 C83.9156073 112.67048553 84.78385132 112.67812927 85.67840576 112.68600464 C90.67408381 112.64267863 94.14084433 112.08184313 98.46166992 109.29052734 C101.24227174 104.86684264 100.46166992 101.92928103 100.46166992 96.29052734 C63.50166992 96.29052734 26.54166992 96.29052734 -11.53833008 96.29052734 Z M326.18091488 128.10737801 C325.26727551 130.8805795 325.56446067 132.53776709 326.46166992 135.29052734 C328.91115334 136.51526905 330.49858735 136.41901906 333.23765564 136.42424011 C334.24576797 136.4285051 335.25388031 136.43277008 336.2925415 136.43716431 C337.40272644 136.43671112 338.51291138 136.43625793 339.65673828 136.43579102 C340.82263992 136.43914963 341.98854156 136.44250824 343.18977356 136.44596863 C347.06036431 136.45550109 350.9309119 136.45742285 354.80151367 136.45849609 C356.8049394 136.460896 358.80836513 136.46329745 360.81179053 136.46595651 C367.11362528 136.47410392 373.41544574 136.47654048 379.71728516 136.47583008 C386.2224642 136.47522914 392.72756035 136.48578353 399.23271841 136.50157374 C404.81407975 136.51463985 410.39541397 136.52001437 415.97679049 136.51937467 C419.31192752 136.51911941 422.64697414 136.52290034 425.98209953 136.53255272 C429.70053946 136.54230701 433.41876392 136.53949263 437.13720703 136.53344727 C438.79944809 136.54187653 438.79944809 136.54187653 440.49526978 136.55047607 C441.50620193 136.54628159 442.51713409 136.5420871 443.55870056 136.5377655 C444.43825881 136.53831027 445.31781706 136.53885504 446.22402859 136.53941631 C448.74669341 136.43224289 448.74669341 136.43224289 451.46166992 134.29052734 C450.77833056 126.1782197 446.22386952 119.52243295 440.57304001 113.86844635 C433.77003488 108.78426373 423.9292345 109.97797952 415.87182617 110.09521484 C413.67805955 110.07932562 411.48432108 110.05899325 409.29063416 110.03445435 C404.70725419 110.00196378 400.12887006 110.02783255 395.54589844 110.09472656 C389.69994938 110.17470352 383.8676641 110.10147848 378.0227747 109.98316765 C373.49622426 109.90995718 368.97288149 109.92250038 364.4460125 109.95972061 C362.29357883 109.96664591 360.14087032 109.94674453 357.9889698 109.89834213 C341.50821976 109.59391077 334.38371145 113.67199969 326.18091488 128.10737801 Z M132.46166992 145.29052734 C131.65342773 145.96470703 130.84518555 146.63888672 130.01245117 147.33349609 C110.4988741 164.15131998 96.22725464 187.48737842 89.46166992 212.29052734 C89.26557129 212.97937012 89.06947266 213.66821289 88.86743164 214.37792969 C82.78775169 236.51432773 83.1898687 262.25934394 89.46166992 284.29052734 C89.64358887 284.95745605 89.82550781 285.62438477 90.01293945 286.31152344 C95.18171288 304.84797362 105.09491384 321.67316087 117.46166992 336.29052734 C118.47680664 337.50869141 118.47680664 337.50869141 119.51245117 338.75146484 C142.49871089 365.39367446 176.03784645 380.77478441 210.79736328 384.02148438 C246.4243927 386.53793922 281.54272957 374.57426037 308.46166992 351.29052734 C309.26733398 350.61763672 310.07299805 349.94474609 310.90307617 349.25146484 C330.425486 332.4481387 344.69771454 309.087703 351.46166992 284.29052734 C351.65776855 283.60168457 351.85386719 282.9128418 352.0559082 282.203125 C358.13558815 260.06672696 357.73347114 234.32171075 351.46166992 212.29052734 C351.27975098 211.62359863 351.09783203 210.95666992 350.91040039 210.26953125 C345.74162697 191.73308107 335.828426 174.90789382 323.46166992 160.29052734 C322.78491211 159.47841797 322.1081543 158.66630859 321.41088867 157.82958984 C298.42462896 131.18738023 264.8854934 115.80627028 230.12597656 112.55957031 C194.32972663 110.03116286 159.5894142 122.12172419 132.46166992 145.29052734 Z M19.46166992 128.29052734 C16.31259872 136.84331375 16.31259872 136.84331375 15.46166992 144.29052734 C34.60166992 144.29052734 53.74166992 144.29052734 73.46166992 144.29052734 C71.99316099 134.13759124 71.99316099 134.13759124 69.46166992 128.29052734 C52.96166992 128.29052734 36.46166992 128.29052734 19.46166992 128.29052734 Z M339.46166992 152.29052734 C344.0404768 159.49541471 344.0404768 159.49541471 348.64916992 166.68115234 C360.06603829 184.69224641 366.11500011 203.52310491 370.46166992 224.29052734 C376.40166992 224.29052734 382.34166992 224.29052734 388.46166992 224.29052734 C388.46166992 200.53052734 388.46166992 176.77052734 388.46166992 152.29052734 C372.29166992 152.29052734 356.12166992 152.29052734 339.46166992 152.29052734 Z M52.46166992 272.29052734 C52.46166992 288.13052734 52.46166992 303.97052734 52.46166992 320.29052734 C63.68166992 320.62052734 74.90166992 320.95052734 86.46166992 321.29052734 C85.26541992 318.56802734 84.06916992 315.84552734 82.83666992 313.04052734 C79.84384942 306.04808779 77.26113359 299.0169963 75.08666992 291.72802734 C74.84867676 290.93299805 74.61068359 290.13796875 74.36547852 289.31884766 C72.7408406 283.69410991 71.55188714 278.04218733 70.46166992 272.29052734 C64.52166992 272.29052734 58.58166992 272.29052734 52.46166992 272.29052734 Z M370.46166992 272.29052734 C370.04208008 274.23378906 370.04208008 274.23378906 369.61401367 276.21630859 C366.08933854 292.02866331 361.04605237 306.47566684 354.46166992 321.29052734 C365.68166992 320.96052734 376.90166992 320.63052734 388.46166992 320.29052734 C388.46166992 304.45052734 388.46166992 288.61052734 388.46166992 272.29052734 C382.52166992 272.29052734 376.58166992 272.29052734 370.46166992 272.29052734 Z M-9.53833008 339.29052734 C-11.33287342 342.843811 -11.79031637 345.758481 -11.79902649 349.71080017 C-11.8061113 350.78601425 -11.81319611 351.86122833 -11.82049561 352.96902466 C-11.81801819 354.13851654 -11.81554077 355.30800842 -11.81298828 356.51293945 C-11.81809921 357.75248886 -11.82321014 358.99203827 -11.82847595 360.26914978 C-11.83998398 363.66179105 -11.84244723 367.05418778 -11.83991265 370.44683146 C-11.83884142 373.28228541 -11.84373017 376.11771693 -11.84851807 378.95316607 C-11.85960529 385.6440061 -11.86005505 392.33478999 -11.85400391 399.02563477 C-11.84796347 405.92110327 -11.86027857 412.81636777 -11.88157398 419.71180147 C-11.89920378 425.63892411 -11.90518918 431.5659819 -11.90193623 437.49312979 C-11.90012548 441.03010804 -11.90273871 444.56694074 -11.91665077 448.10389519 C-11.93158795 452.04891814 -11.92224688 455.99368226 -11.91064453 459.9387207 C-11.91828827 461.10618835 -11.92593201 462.27365601 -11.93380737 463.47650146 C-11.96617559 471.35797624 -11.96617559 471.35797624 -8.53833008 478.29052734 C-4.54527425 480.75616236 -0.2883763 480.5808829 4.27783203 480.56518555 C5.04921005 480.57029648 5.82058807 480.57540741 6.61534119 480.58067322 C9.15664502 480.59453476 11.69767661 480.59361511 14.23901367 480.59130859 C16.0111145 480.59519732 17.78321441 480.59953235 19.55531311 480.60429382 C23.26656111 480.61174856 26.97771397 480.6114701 30.68896484 480.60620117 C35.43807079 480.60040648 40.18678673 480.61734108 44.93582821 480.64054585 C48.5947547 480.65529773 52.25358757 480.65615292 55.91253853 480.65303612 C57.6631809 480.65354856 59.41382861 480.65877189 61.16444206 480.66884804 C63.61525493 480.68122396 66.06531196 480.6744143 68.51611328 480.6628418 C69.23474548 480.67048553 69.95337769 480.67812927 70.69378662 480.68600464 C75.33399847 480.63772506 78.60793682 479.91387581 82.46166992 477.29052734 C84.25621327 473.73724368 84.71365622 470.82257369 84.72236633 466.87025452 C84.72945114 465.79504044 84.73653595 464.71982635 84.74383545 463.61203003 C84.74135803 462.44253815 84.73888062 461.27304626 84.73632812 460.06811523 C84.74399452 458.20879112 84.74399452 458.20879112 84.7518158 456.31190491 C84.76332383 452.91926364 84.76578707 449.52686691 84.7632525 446.13422322 C84.76218127 443.29876927 84.76707002 440.46333775 84.77185792 437.62788862 C84.78294513 430.93704858 84.78339489 424.24626469 84.77734375 417.55541992 C84.77130331 410.65995141 84.78361842 403.76468692 84.80491382 396.86925322 C84.82254362 390.94213057 84.82852903 385.01507279 84.82527608 379.0879249 C84.82346532 375.55094664 84.82607855 372.01411394 84.83999062 368.4771595 C84.8549278 364.53213655 84.84558672 360.58737243 84.83398438 356.64233398 C84.84162811 355.47486633 84.84927185 354.30739868 84.85714722 353.10455322 C84.88951544 345.22307844 84.88951544 345.22307844 81.46166992 338.29052734 C77.46861409 335.82489233 73.21171615 336.00017178 68.64550781 336.01586914 C67.48844078 336.00820274 67.48844078 336.00820274 66.30799866 336.00038147 C63.76669483 335.98651993 61.22566324 335.98743958 58.68432617 335.98974609 C56.91222534 335.98585737 55.14012544 335.98152233 53.36802673 335.97676086 C49.65677873 335.96930613 45.94562587 335.96958459 42.234375 335.97485352 C37.48526906 335.98064821 32.73655311 335.96371361 27.98751163 335.94050884 C24.32858514 335.92575696 20.66975228 335.92490176 17.01080132 335.92801857 C15.26015894 335.92750612 13.50951123 335.9222828 11.75889778 335.91220665 C9.30808491 335.89983072 6.85802789 335.90664038 4.40722656 335.91821289 C3.32927826 335.90674728 3.32927826 335.90674728 2.22955322 335.89505005 C-2.41065863 335.94332963 -5.68459698 336.66717888 -9.53833008 339.29052734 Z M358.46166992 339.29052734 C355.68106811 343.71421205 356.46166992 346.65177366 356.46166992 352.29052734 C388.14166992 352.29052734 419.82166992 352.29052734 452.46166992 352.29052734 C452.71480237 344.48334824 452.71480237 344.48334824 449.46166992 338.29052734 C445.29987393 336.04409777 441.26549059 335.99998692 436.64550781 336.01586914 C435.48844078 336.00820274 435.48844078 336.00820274 434.30799866 336.00038147 C431.76669483 335.98651993 429.22566324 335.98743958 426.68432617 335.98974609 C424.91222534 335.98585737 423.14012544 335.98152233 421.36802673 335.97676086 C417.65677873 335.96930613 413.94562587 335.96958459 410.234375 335.97485352 C405.48526906 335.98064821 400.73655311 335.96371361 395.98751163 335.94050884 C392.32858514 335.92575696 388.66975228 335.92490176 385.01080132 335.92801857 C383.26015894 335.92750612 381.50951123 335.9222828 379.75889778 335.91220665 C377.30808491 335.89983072 374.85802789 335.90664038 372.40722656 335.91821289 C371.32927826 335.90674728 371.32927826 335.90674728 370.22955322 335.89505005 C365.58688289 335.94335521 362.40181341 336.83537644 358.46166992 339.29052734 Z M356.46166992 368.29052734 C356.46166992 394.69052734 356.46166992 421.09052734 356.46166992 448.29052734 C388.14166992 448.29052734 419.82166992 448.29052734 452.46166992 448.29052734 C452.46166992 421.89052734 452.46166992 395.49052734 452.46166992 368.29052734 C420.78166992 368.29052734 389.10166992 368.29052734 356.46166992 368.29052734 Z M263.08666992 418.91552734 C260.97460486 422.00239166 260.84971847 423.61881865 261.46166992 427.29052734 C262.96166992 429.79052734 262.96166992 429.79052734 265.46166992 431.29052734 C269.13337862 431.90247879 270.74980561 431.7775924 273.83666992 429.66552734 C275.94873498 426.57866303 276.07362137 424.96223604 275.46166992 421.29052734 C273.96166992 418.79052734 273.96166992 418.79052734 271.46166992 417.29052734 C267.78996122 416.67857589 266.17353424 416.80346229 263.08666992 418.91552734 Z M151.08666992 434.91552734 C148.97460486 438.00239166 148.84971847 439.61881865 149.46166992 443.29052734 C150.96166992 445.79052734 150.96166992 445.79052734 153.46166992 447.29052734 C157.13337862 447.90247879 158.74980561 447.7775924 161.83666992 445.66552734 C163.94873498 442.57866303 164.07362137 440.96223604 163.46166992 437.29052734 C161.96166992 434.79052734 161.96166992 434.79052734 159.46166992 433.29052734 C155.78996122 432.67857589 154.17353424 432.80346229 151.08666992 434.91552734 Z M356.46166992 464.29052734 C356.20853747 472.09770645 356.20853747 472.09770645 359.46166992 478.29052734 C363.62346591 480.53695692 367.65784926 480.58106777 372.27783203 480.56518555 C373.43489906 480.57285194 373.43489906 480.57285194 374.61534119 480.58067322 C377.15664502 480.59453476 379.69767661 480.59361511 382.23901367 480.59130859 C384.0111145 480.59519732 385.78321441 480.59953235 387.55531311 480.60429382 C391.26656111 480.61174856 394.97771397 480.6114701 398.68896484 480.60620117 C403.43807079 480.60040648 408.18678673 480.61734108 412.93582821 480.64054585 C416.5947547 480.65529773 420.25358757 480.65615292 423.91253853 480.65303612 C425.6631809 480.65354856 427.41382861 480.65877189 429.16444206 480.66884804 C431.61525493 480.68122396 434.06531196 480.6744143 436.51611328 480.6628418 C437.23474548 480.67048553 437.95337769 480.67812927 438.69378662 480.68600464 C443.33645696 480.63769948 446.52152643 479.74567825 450.46166992 477.29052734 C453.24227174 472.86684264 452.46166992 469.92928103 452.46166992 464.29052734 C420.78166992 464.29052734 389.10166992 464.29052734 356.46166992 464.29052734 Z M215.08666992 466.91552734 C212.97460486 470.00239166 212.84971847 471.61881865 213.46166992 475.29052734 C214.96166992 477.79052734 214.96166992 477.79052734 217.46166992 479.29052734 C221.13337862 479.90247879 222.74980561 479.7775924 225.83666992 477.66552734 C227.94873498 474.57866303 228.07362137 472.96223604 227.46166992 469.29052734 C225.96166992 466.79052734 225.96166992 466.79052734 223.46166992 465.29052734 C219.78996122 464.67857589 218.17353424 464.80346229 215.08666992 466.91552734 Z " fill="#000000" transform="translate(35.538330078125,7.70947265625)"/>
<path d="M0 0 C3.26701612 2.66358727 6.39330111 5.45632415 9.50390625 8.30078125 C10.70273437 9.37585938 10.70273437 9.37585938 11.92578125 10.47265625 C23.25289034 21.15709249 31.22417267 34.17323423 37.50390625 48.30078125 C38.22707031 49.89986328 38.22707031 49.89986328 38.96484375 51.53125 C50.75297985 79.71561176 49.78417969 113.38067819 38.81640625 141.61328125 C32.88884236 155.96145228 24.9509354 167.8762523 14.50390625 179.30078125 C13.7871875 180.1 13.07046875 180.89921875 12.33203125 181.72265625 C1.64253838 193.05512614 -11.36968274 201.0066886 -25.49609375 207.30078125 C-26.55054688 207.78289062 -27.605 208.265 -28.69140625 208.76171875 C-51.6867879 218.46565218 -80.5115563 220.05238771 -104.49609375 213.30078125 C-105.72457031 212.96046875 -106.95304687 212.62015625 -108.21875 212.26953125 C-139.63427907 202.65319557 -164.50751489 181.32853982 -180.44140625 152.8203125 C-189.75666771 134.97614282 -194.12665429 116.60373819 -193.93359375 96.55078125 C-193.9298877 95.85456665 -193.92618164 95.15835205 -193.92236328 94.44104004 C-193.68809984 63.3958102 -182.39194102 36.15179552 -161.49609375 13.30078125 C-160.779375 12.5015625 -160.06265625 11.70234375 -159.32421875 10.87890625 C-148.63472588 -0.45356364 -135.62250476 -8.4051261 -121.49609375 -14.69921875 C-120.44164062 -15.18132812 -119.3871875 -15.6634375 -118.30078125 -16.16015625 C-80.31158865 -32.19140121 -32.31783025 -25.47213687 0 0 Z " fill="#EFBB5D" transform="translate(329.49609375,159.69921875)"/>
<path d="M0 0 C9.26606126 5.95149245 15.57016053 14.42159693 18.0625 25.125 C19.08093225 30.86038163 18.99203859 36.56991898 18.8125 42.375 C20.3284375 42.436875 20.3284375 42.436875 21.875 42.5 C26.61147939 43.16426235 29.70149472 45.86998878 32.8125 49.375 C35.4526897 53.23254287 35.10092637 57.41110487 35.0871582 61.90380859 C35.09226913 62.76282272 35.09738007 63.62183685 35.10264587 64.50688171 C35.11654269 67.34580458 35.11558488 70.18448467 35.11328125 73.0234375 C35.11716843 74.9987497 35.12150315 76.97406106 35.12626648 78.94937134 C35.13372911 83.09029855 35.13343731 87.23114051 35.12817383 91.37207031 C35.12238243 96.6738438 35.1393021 101.97526758 35.1625185 107.27698326 C35.17726466 111.35710688 35.17812628 115.43714648 35.17500877 119.51729202 C35.17552165 121.47168291 35.18075304 123.42607855 35.19082069 125.38044357 C35.20318331 128.11632617 35.1963942 130.85153027 35.18481445 133.58740234 C35.19245819 134.39176224 35.20010193 135.19612213 35.20797729 136.02485657 C35.15643572 141.54565097 34.16787895 145.79267047 30.3125 150.01953125 C24.94017983 154.20266597 21.00754213 154.53011224 14.3972168 154.55200195 C13.53834869 154.55857315 12.67948059 154.56514435 11.79458618 154.57191467 C8.95029615 154.59163685 6.10605888 154.60330741 3.26171875 154.61328125 C2.29006083 154.61735678 1.3184029 154.6214323 0.3173008 154.62563133 C-4.82484093 154.64648672 -9.966956 154.66079117 -15.10913086 154.67016602 C-20.41883318 154.68123382 -25.72811682 154.71563961 -31.03767109 154.75533772 C-35.12207314 154.78148637 -39.20637511 154.78985626 -43.2908535 154.79344749 C-45.24805723 154.79831739 -47.20525637 154.80994282 -49.16237831 154.82848549 C-51.90326743 154.8528413 -54.64306893 154.85191855 -57.3840332 154.8449707 C-58.59292961 154.86418579 -58.59292961 154.86418579 -59.82624817 154.88378906 C-65.07718558 154.8353527 -68.00157836 153.81301445 -72.1875 150.375 C-76.99716566 145.04537048 -77.34147486 140.91351076 -77.36450195 133.9597168 C-77.37107315 133.10084869 -77.37764435 132.24198059 -77.38441467 131.35708618 C-77.40413685 128.51279615 -77.41580741 125.66855888 -77.42578125 122.82421875 C-77.42985678 121.85256083 -77.4339323 120.8809029 -77.43813133 119.8798008 C-77.45898672 114.73765907 -77.47329117 109.595544 -77.48266602 104.45336914 C-77.49373382 99.14366682 -77.52813961 93.83438318 -77.56783772 88.52482891 C-77.59398637 84.44042686 -77.60235626 80.35612489 -77.60594749 76.2716465 C-77.61081739 74.31444277 -77.62244282 72.35724363 -77.64098549 70.40012169 C-77.6653413 67.65923257 -77.66441855 64.91943107 -77.6574707 62.1784668 C-77.67028076 61.37253586 -77.68309082 60.56660492 -77.69628906 59.73625183 C-77.63664868 53.27069809 -75.48207221 49.66957221 -70.875 45.0625 C-67.62940793 43.02457009 -64.95685698 42.82131308 -61.1875 42.375 C-61.24550781 41.35921875 -61.30351562 40.3434375 -61.36328125 39.296875 C-61.87461688 26.43505866 -59.09254224 16.10943343 -50.1875 6.375 C-36.47576824 -7.5307657 -16.94312683 -9.29805741 0 0 Z " fill="#010000" transform="translate(277.1875,173.625)"/>
<path d="M0 0 C26.4 0 52.8 0 80 0 C80 26.4 80 52.8 80 80 C53.6 80 27.2 80 0 80 C0 53.6 0 27.2 0 0 Z " fill="#EFBB5D" transform="translate(216,232)"/>
<path d="M0 0 C21.12 0 42.24 0 64 0 C64 26.4 64 52.8 64 80 C42.88 80 21.76 80 0 80 C0 53.6 0 27.2 0 0 Z " fill="#F0BC5E" transform="translate(40,360)"/>
<path d="M0 0 C21.12 0 42.24 0 64 0 C64 15.84 64 31.68 64 48 C42.88 48 21.76 48 0 48 C0 32.16 0 16.32 0 0 Z " fill="#F0BC5E" transform="translate(392,40)"/>
<path d="M0 0 C6.517154 3.6904366 11.82881353 8.78641294 13.9453125 16.1015625 C15.07677143 23.27925509 13.68914171 29.8826462 9.9453125 36.1015625 C6.30310107 40.2065139 3.31111676 42.76011144 -2.0546875 44.1015625 C-2.0546875 50.0415625 -2.0546875 55.9815625 -2.0546875 62.1015625 C-7.3346875 62.1015625 -12.6146875 62.1015625 -18.0546875 62.1015625 C-18.0546875 56.1615625 -18.0546875 50.2215625 -18.0546875 44.1015625 C-20.0346875 43.4415625 -22.0146875 42.7815625 -24.0546875 42.1015625 C-29.93330335 37.23886278 -33.40613593 31.17647852 -34.3671875 23.65625 C-34.66213155 17.62833094 -33.71035924 12.96282811 -30.0546875 8.1015625 C-21.53578211 -0.86236034 -12.04227969 -5.21669606 0 0 Z " fill="#020100" transform="translate(266.0546875,241.8984375)"/>
<path d="M0 0 C6.55377411 3.43524963 10.69615183 9.27019619 13.1015625 16.1015625 C13.1015625 20.7215625 13.1015625 25.3415625 13.1015625 30.1015625 C-2.7384375 30.1015625 -18.5784375 30.1015625 -34.8984375 30.1015625 C-34.8984375 12.28066698 -34.8984375 12.28066698 -28.8046875 5.9140625 C-20.13655821 -2.1761915 -11.3104223 -4.27637875 0 0 Z " fill="#EDBA5D" transform="translate(266.8984375,185.8984375)"/>
<path d="M0 0 C10.56 0 21.12 0 32 0 C32 5.28 32 10.56 32 16 C21.44 16 10.88 16 0 16 C0 10.72 0 5.44 0 0 Z " fill="#000000" transform="translate(56,456)"/>
<path d="M0 0 C4.0743356 0.84881992 5.54405875 2.30225596 8 5.625 C8.625 8.625 8.625 8.625 8 11.625 C5.54405875 14.94774404 4.0743356 16.40118008 0 17.25 C-4.0743356 16.40118008 -5.54405875 14.94774404 -8 11.625 C-8.625 8.625 -8.625 8.625 -8 5.625 C-5.54405875 2.30225596 -4.0743356 0.84881992 0 0 Z " fill="#E4B359" transform="translate(256,255.375)"/>
</svg>
