<?xml version="1.0" encoding="UTF-8"?>
<svg version="1.1" xmlns="http://www.w3.org/2000/svg" width="512" height="512">
<path d="M0 0 C20.46 0 40.92 0 62 0 C64.31 6.6 66.62 13.2 69 20 C76.45429841 23.54786202 76.45429841 23.54786202 83.8671875 25.64453125 C88.08669652 26.6306375 91.19565682 28.12860957 94.84448242 30.41015625 C97.94218848 32.30624289 100.41130222 33.33515425 104 34 C109.91333234 32.43627696 115.10815919 29.11395354 120.1315918 25.71020508 C122 25 122 25 123.85890198 25.71192932 C126.3185134 27.1916156 128.10205493 28.86219452 130.12597656 30.89892578 C130.92650452 31.6996048 131.72703247 32.50028381 132.55181885 33.32522583 C133.40612488 34.18985443 134.26043091 35.05448303 135.140625 35.9453125 C136.02280701 36.8303244 136.90498901 37.7153363 137.81390381 38.62716675 C140.15194543 40.97450131 142.48555874 43.32606785 144.81713867 45.67980957 C147.19996526 48.08313927 149.58850348 50.48077767 151.9765625 52.87890625 C156.65631862 57.58071467 161.33031867 62.28818664 166 67 C164.92459357 70.4519553 163.91740132 73.12934668 161.95703125 76.19921875 C157.76128453 82.76892935 157.76128453 82.76892935 157.47998047 90.30712891 C159.07672303 94.55140189 161.24241799 98.40371684 163.49609375 102.328125 C165.55561521 105.91878189 166.71854383 109.02553824 167.28930664 113.12011719 C168.0545834 116.23550422 169.63016238 119.0991674 171 122 C177.6 124.31 184.2 126.62 191 129 C191 149.46 191 169.92 191 191 C184.4 193.31 177.8 195.62 171 198 C170.67 200.31 170.34 202.62 170 205 C173.33294129 207.54218108 176.6664251 210.08364984 180 212.625 C180.93457031 213.33785156 181.86914062 214.05070313 182.83203125 214.78515625 C184.21455078 215.83896484 184.21455078 215.83896484 185.625 216.9140625 C186.88183594 217.8723999 186.88183594 217.8723999 188.1640625 218.85009766 C190.79139662 220.93611322 190.79139662 220.93611322 192.99501801 222.14673615 C196.16294882 224.11369404 198.56544793 225.6330482 199.72685242 229.28642845 C199.98543625 232.11561082 199.9900797 234.84700418 199.90820312 237.68701172 C199.90937134 238.75102707 199.91053955 239.81504242 199.91174316 240.91130066 C199.90618145 244.41877003 199.84401353 247.92281431 199.78125 251.4296875 C199.76632483 253.86490013 199.75493912 256.30013682 199.74694824 258.73538208 C199.716437 265.13768102 199.63787879 271.53852256 199.54931641 277.94024658 C199.45299833 285.62507 199.41634184 293.31038141 199.36968994 300.99563599 C199.29217193 312.6647702 199.13887422 324.33070825 199 336 C214.84 336 230.68 336 247 336 C247 341.28 247 346.56 247 352 C257.56 352 268.12 352 279 352 C279 394.24 279 436.48 279 480 C260.52 480.33 242.04 480.66 223 481 C221.35 482.98 219.7 484.96 218 487 C207.70083814 495.62648776 197.07369679 496.99452866 184.05566406 496.21142578 C179.54305129 495.74730195 175.88470085 494.26665669 172 492 C171.18917969 491.52949219 170.37835938 491.05898438 169.54296875 490.57421875 C164.91966996 487.68372338 162.54231487 485.42789359 159 481 C140.52 480.67 122.04 480.34 103 480 C103 437.76 103 395.52 103 352 C113.56 352 124.12 352 135 352 C135 346.72 135 341.44 135 336 C150.84 336 166.68 336 183 336 C183 303 183 270 183 236 C181.68 235.34 180.36 234.68 179 234 C177.68220307 233.08945519 176.38583629 232.14732751 175.109375 231.1796875 C174.40039062 230.64472656 173.69140625 230.10976562 172.9609375 229.55859375 C172.23132813 229.00300781 171.50171875 228.44742188 170.75 227.875 C170.00492187 227.31167969 169.25984375 226.74835938 168.4921875 226.16796875 C166.65925189 224.78151746 164.82862987 223.39212232 163 222 C160.11374397 225.43601908 158.17751372 228.64986439 157 233 C157.98070274 236.34755514 159.66544052 239.19791982 161.4375 242.1875 C162.34612317 243.75624491 163.24135644 245.33284449 164.12109375 246.91796875 C164.5277124 247.60656982 164.93433105 248.2951709 165.35327148 249.00463867 C166 251 166 251 165.28410339 252.86683655 C163.80586178 255.32250405 162.13490349 257.10493867 160.10107422 259.12597656 C159.3003952 259.92650452 158.49971619 260.72703247 157.67477417 261.55181885 C156.81014557 262.40612488 155.94551697 263.26043091 155.0546875 264.140625 C153.72716965 265.46389801 153.72716965 265.46389801 152.37283325 266.81390381 C150.02549869 269.15194543 147.67393215 271.48555874 145.32019043 273.81713867 C142.91686073 276.19996526 140.51922233 278.58850348 138.12109375 280.9765625 C133.41928533 285.65631862 128.71181336 290.33031867 124 295 C120.5480447 293.92459357 117.87065332 292.91740132 114.80078125 290.95703125 C108.23107065 286.76128453 108.23107065 286.76128453 100.69287109 286.47998047 C96.44859811 288.07672303 92.59628316 290.24241799 88.671875 292.49609375 C85.08121811 294.55561521 81.97446176 295.71854383 77.87988281 296.28930664 C74.76449578 297.0545834 71.9008326 298.63016238 69 300 C66.69 306.6 64.38 313.2 62 320 C41.54 320 21.08 320 0 320 C-2.31 313.4 -4.62 306.8 -7 300 C-14.45429841 296.45213798 -14.45429841 296.45213798 -21.8671875 294.35546875 C-26.08669652 293.3693625 -29.19565682 291.87139043 -32.84448242 289.58984375 C-35.94218848 287.69375711 -38.41130222 286.66484575 -42 286 C-47.91333234 287.56372304 -53.10815919 290.88604646 -58.1315918 294.28979492 C-60 295 -60 295 -61.85890198 294.28807068 C-64.3185134 292.8083844 -66.10205493 291.13780548 -68.12597656 289.10107422 C-69.32676849 287.90005569 -69.32676849 287.90005569 -70.55181885 286.67477417 C-71.40612488 285.81014557 -72.26043091 284.94551697 -73.140625 284.0546875 C-74.46389801 282.72716965 -74.46389801 282.72716965 -75.81390381 281.37283325 C-78.15194543 279.02549869 -80.48555874 276.67393215 -82.81713867 274.32019043 C-85.19996526 271.91686073 -87.58850348 269.51922233 -89.9765625 267.12109375 C-94.65631862 262.41928533 -99.33031867 257.71181336 -104 253 C-102.70877222 248.92560211 -101.15027238 245.38777375 -99.08032227 241.64477539 C-95.70526054 235.57296878 -95.70526054 235.57296878 -95.65625 228.80078125 C-96.92945562 226.32156697 -98.2516704 224.16629762 -100 222 C-105.96655284 225.80475834 -111.50260621 229.92236576 -116.93359375 234.4609375 C-119 236 -119 236 -121 236 C-121 269 -121 302 -121 336 C-105.16 336 -89.32 336 -73 336 C-73 341.28 -73 346.56 -73 352 C-62.44 352 -51.88 352 -41 352 C-41 394.24 -41 436.48 -41 480 C-59.48 480.33 -77.96 480.66 -97 481 C-98.65 482.98 -100.3 484.96 -102 487 C-112.29916186 495.62648776 -122.92630321 496.99452866 -135.94433594 496.21142578 C-140.45694871 495.74730195 -144.11529915 494.26665669 -148 492 C-148.81082031 491.52949219 -149.62164062 491.05898438 -150.45703125 490.57421875 C-155.08033004 487.68372338 -157.45768513 485.42789359 -161 481 C-179.48 480.67 -197.96 480.34 -217 480 C-217 437.76 -217 395.52 -217 352 C-206.44 352 -195.88 352 -185 352 C-185 346.72 -185 341.44 -185 336 C-169.16 336 -153.32 336 -137 336 C-137.31324219 324.44097656 -137.31324219 324.44097656 -137.6328125 312.6484375 C-137.7248698 307.74451633 -137.81151499 302.84167109 -137.87890625 297.9375 C-137.98622584 290.1647219 -138.11266792 282.39578591 -138.35791016 274.62597656 C-138.55456971 268.3556001 -138.66132253 262.08934382 -138.70779037 255.81612015 C-138.74086631 253.4322789 -138.80546966 251.04864553 -138.90314102 248.66657639 C-139.61661362 230.53248613 -139.61661362 230.53248613 -135.25411224 224.643013 C-131.04915037 220.44405457 -126.31778057 217.27503768 -121.19570541 214.30125809 C-118.07852063 212.45389647 -115.26008554 210.3146855 -112.375 208.125 C-110.91903381 207.08002727 -109.4618061 206.03678758 -108 205 C-108.495 201.535 -108.495 201.535 -109 198 C-118.9 194.535 -118.9 194.535 -129 191 C-129 170.54 -129 150.08 -129 129 C-122.4 126.69 -115.8 124.38 -109 122 C-105.45213798 114.54570159 -105.45213798 114.54570159 -103.35546875 107.1328125 C-102.3693625 102.91330348 -100.87139043 99.80434318 -98.58984375 96.15551758 C-96.69375711 93.05781152 -95.66484575 90.58869778 -95 87 C-96.56372304 81.08666766 -99.88604646 75.89184081 -103.28979492 70.8684082 C-104 69 -104 69 -103.28807068 67.14109802 C-101.8083844 64.6814866 -100.13780548 62.89794507 -98.10107422 60.87402344 C-97.3003952 60.07349548 -96.49971619 59.27296753 -95.67477417 58.44818115 C-94.37783127 57.16672211 -94.37783127 57.16672211 -93.0546875 55.859375 C-92.1696756 54.97719299 -91.2846637 54.09501099 -90.37283325 53.18609619 C-88.02549869 50.84805457 -85.67393215 48.51444126 -83.32019043 46.18286133 C-80.91686073 43.80003474 -78.51922233 41.41149652 -76.12109375 39.0234375 C-71.41928533 34.34368138 -66.71181336 29.66968133 -62 25 C-58.5480447 26.07540643 -55.87065332 27.08259868 -52.80078125 29.04296875 C-46.23107065 33.23871547 -46.23107065 33.23871547 -38.69287109 33.52001953 C-34.44859811 31.92327697 -30.59628316 29.75758201 -26.671875 27.50390625 C-23.08121811 25.44438479 -19.97446176 24.28145617 -15.87988281 23.71069336 C-12.76449578 22.9454166 -9.9008326 21.36983762 -7 20 C-3.535 10.1 -3.535 10.1 0 0 Z M6 140 C0.04315825 148.77226447 -0.80860965 156.46529681 0 167 C2.18377815 176.24674063 7.15898101 182.43138233 15.125 187.375 C22.98541912 191.95412267 32.04862774 192.40551976 40.89453125 190.31640625 C50.77805786 186.65752774 56.3956627 180.36318257 61 171 C63.77466577 162.8609804 62.86936703 152.85436893 59.25 145.17578125 C54.914007 137.62844344 48.44497274 132.1971498 40.109375 129.35546875 C26.81781294 127.1155944 15.03739294 129.71745515 6 140 Z " fill="#000000" transform="translate(225,8)"/>
<path d="M0 0 C12.54 0 25.08 0 38 0 C39.98 5.94 41.96 11.88 44 18 C49.40378537 20.24514978 49.40378537 20.24514978 54.65625 21.23828125 C59.6682245 21.97323239 64.05889832 23.81225985 68.6875 25.8125 C69.49719238 26.15265137 70.30688477 26.49280273 71.14111328 26.84326172 C75.96929195 28.92849221 80.19768029 31.32702948 84.5625 34.25 C88.39565493 36.64853331 88.39565493 36.64853331 92.7734375 36.6484375 C96.44614723 35.23751382 99.5151941 33.31243047 102.8125 31.1875 C105 30 105 30 107.28955078 30.11621094 C110.83529439 31.27236225 112.98054744 33.36921827 115.5546875 35.953125 C116.06049347 36.45036072 116.56629944 36.94759644 117.08743286 37.4598999 C118.14962646 38.51064155 119.20666383 39.56661826 120.25878906 40.62744141 C121.87356555 42.24855991 123.51322325 43.84117458 125.15625 45.43359375 C126.18651461 46.45931411 127.21521678 47.48660675 128.2421875 48.515625 C128.98104691 49.22685516 128.98104691 49.22685516 129.73483276 49.95245361 C131.08154297 51.33691406 131.08154297 51.33691406 133 54 C132.782004 59.26477269 129.62115969 63.56887315 127.08203125 68.0625 C125.73888017 70.87842455 125.73888017 70.87842455 126.5625 73.40625 C127.036875 74.2621875 127.51125 75.118125 128 76 C128.94939453 77.71703125 128.94939453 77.71703125 129.91796875 79.46875 C130.28212891 80.11223389 130.64628906 80.75571777 131.02148438 81.41870117 C137.63268406 93.21947113 143.23131216 106.4916466 145 120 C145.71285156 120.18175781 146.42570312 120.36351562 147.16015625 120.55078125 C148.11792969 120.80214844 149.07570313 121.05351562 150.0625 121.3125 C151.00222656 121.55613281 151.94195312 121.79976563 152.91015625 122.05078125 C156.36264251 123.11140598 159.68029726 124.57727026 163 126 C163 137.88 163 149.76 163 162 C153 166 153 166 148.5625 167.0625 C146.06449101 168.02288991 145.22615574 168.5138618 144.0859375 170.96484375 C143.62031958 172.78524153 143.20264332 174.61815413 142.81640625 176.45703125 C141.80855524 180.8308153 140.40074573 184.97067852 138.875 189.1875 C138.5860083 190.00573242 138.2970166 190.82396484 137.99926758 191.66699219 C136.1487873 196.65980671 133.90275827 200.86498899 130.93798828 205.27539062 C127.05400661 210.70526866 127.05400661 210.70526866 126.30761719 217.06591797 C127.5213958 220.60375972 129.25342376 223.64583802 131.25 226.79296875 C133 230 133 230 132.91894531 232.35327148 C131.70978837 235.83586192 129.60542496 238.00580837 127.046875 240.5546875 C126.54963928 241.06049347 126.05240356 241.56629944 125.5401001 242.08743286 C124.48935845 243.14962646 123.43338174 244.20666383 122.37255859 245.25878906 C120.75144009 246.87356555 119.15882542 248.51322325 117.56640625 250.15625 C116.54068589 251.18651461 115.51339325 252.21521678 114.484375 253.2421875 C114.01022156 253.73476044 113.53606812 254.22733337 113.04754639 254.73483276 C111.66308594 256.08154297 111.66308594 256.08154297 109 258 C104.63460607 257.83364201 101.61635108 255.69975829 97.875 253.5625 C93.22476185 251.28383821 93.22476185 251.28383821 88.26953125 251.6953125 C86.47224337 252.73398719 84.71557521 253.84485407 82.99609375 255.0078125 C79.5465917 257.30148401 76.04605669 258.93321903 72.25 260.5625 C71.57630371 260.85487549 70.90260742 261.14725098 70.20849609 261.44848633 C52.81199231 268.8578023 52.81199231 268.8578023 46.27734375 269.1015625 C43.90648336 269.76068664 43.90648336 269.76068664 43.06762695 271.65185547 C42.18354112 273.91115714 41.44814576 276.17660095 40.75 278.5 C38.04572447 286.95427553 38.04572447 286.95427553 37 288 C34.3337397 288.08855161 31.69352886 288.11524673 29.02734375 288.09765625 C28.22970108 288.0962413 27.43205841 288.09482635 26.61024475 288.09336853 C24.05262565 288.08775316 21.49509282 288.07519812 18.9375 288.0625 C17.20768355 288.05748698 15.47786574 288.05292373 13.74804688 288.04882812 C9.49866447 288.03777875 5.24934688 288.02050386 1 288 C-1.50710309 282.06084316 -3.60061654 276.29722557 -5 270 C-5.95777344 269.79246094 -6.91554688 269.58492188 -7.90234375 269.37109375 C-22.79140144 265.99013932 -36.14923441 260.66307454 -48.94921875 252.30859375 C-51.9378341 250.68509008 -51.9378341 250.68509008 -55.07421875 251.6171875 C-58.66974361 253.31654104 -62.15349229 255.15029558 -65.6328125 257.07421875 C-68.48910167 258.19128234 -69.17616921 258.11406616 -72 257 C-73.92757685 255.40969896 -75.68509338 253.8303396 -77.45703125 252.08203125 C-78.21786263 251.33973518 -78.21786263 251.33973518 -78.99406433 250.58244324 C-80.06117472 249.53486678 -81.12419274 248.48310746 -82.18334961 247.42749023 C-83.80738645 245.81756911 -85.45614646 244.23620544 -87.10742188 242.65429688 C-88.14225683 241.63185731 -89.17551574 240.60781962 -90.20703125 239.58203125 C-90.70274124 239.11303909 -91.19845123 238.64404694 -91.70918274 238.1608429 C-93.06567383 236.77661133 -93.06567383 236.77661133 -95 234 C-94.85575487 229.05874799 -92.96939427 226.23546005 -90.375 222.125 C-88.22429734 217.77684554 -88.22429734 217.77684554 -88.50683594 213.08203125 C-90.46338796 208.78747456 -93.15178457 204.9289765 -95.75341797 201.00537109 C-97.64913928 197.95573246 -99.00916145 194.77511528 -100.3125 191.4375 C-100.79847656 190.220625 -101.28445312 189.00375 -101.78515625 187.75 C-102.85534943 184.44650979 -103.4610567 181.54347074 -103.80249023 178.1171875 C-104.45018759 174.96244557 -105.81322623 171.99390657 -107 169 C-112.94 167.02 -118.88 165.04 -125 163 C-125 150.46 -125 137.92 -125 125 C-110 120 -110 120 -107 120 C-106.67128906 118.52853516 -106.67128906 118.52853516 -106.3359375 117.02734375 C-103.11771014 103.11820333 -98.49187363 90.50157569 -90.7199707 78.453125 C-88.76946771 75.26057 -87.88904915 73.59943247 -88.58203125 69.85546875 C-90.34113177 66.31303768 -92.16036487 62.8282979 -94.07421875 59.3671875 C-95.19128234 56.51089833 -95.11406616 55.82383079 -94 53 C-92.40969896 51.07242315 -90.8303396 49.31490662 -89.08203125 47.54296875 C-88.58716721 47.03574783 -88.09230316 46.52852692 -87.58244324 46.00593567 C-86.53486678 44.93882528 -85.48310746 43.87580726 -84.42749023 42.81665039 C-82.81756911 41.19261355 -81.23620544 39.54385354 -79.65429688 37.89257812 C-78.63185731 36.85774317 -77.60781962 35.82448426 -76.58203125 34.79296875 C-76.11303909 34.29725876 -75.64404694 33.80154877 -75.1608429 33.29081726 C-73.77661133 31.93432617 -73.77661133 31.93432617 -71 30 C-65.27184454 30.19481723 -61.42070395 32.94131652 -56.68359375 35.91796875 C-54.09254663 37.26319636 -54.09254663 37.26319636 -51.62890625 36.4375 C-48.93788654 34.96603603 -46.25058798 33.48911873 -43.58129883 31.97851562 C-31.78052887 25.36731594 -18.5083534 19.76868784 -5 18 C-4.89042969 17.45472656 -4.78085938 16.90945312 -4.66796875 16.34765625 C-4.50941406 15.59355469 -4.35085937 14.83945312 -4.1875 14.0625 C-3.96126953 12.96615234 -3.96126953 12.96615234 -3.73046875 11.84765625 C-2.70170789 7.8371393 -1.30929733 3.927892 0 0 Z M-6 124 C-11.95684175 132.77226447 -12.80860965 140.46529681 -12 151 C-9.81622185 160.24674063 -4.84101899 166.43138233 3.125 171.375 C10.98541912 175.95412267 20.04862774 176.40551976 28.89453125 174.31640625 C38.77805786 170.65752774 44.3956627 164.36318257 49 155 C51.77466577 146.8609804 50.86936703 136.85436893 47.25 129.17578125 C42.914007 121.62844344 36.44497274 116.1971498 28.109375 113.35546875 C14.81781294 111.1155944 3.03739294 113.71745515 -6 124 Z " fill="#FDC528" transform="translate(237,24)"/>
<path d="M0 0 C14.83045523 12.68997716 27.1182552 29.40526086 32.03125 48.59375 C32.30839844 49.63144531 32.58554687 50.66914063 32.87109375 51.73828125 C38.99851816 77.80101274 33.69053473 103.99399146 20.12255859 126.86572266 C17.20311381 131.48850345 13.71008929 135.5666557 10.03125 139.59375 C9.33386719 140.37234375 8.63648438 141.1509375 7.91796875 141.953125 C-4.9616375 155.60974589 -21.84083828 164.28891178 -39.96875 168.59375 C-40.82210937 168.81933594 -41.67546875 169.04492188 -42.5546875 169.27734375 C-65.60117555 174.54822824 -89.98506436 169.26359273 -110.20703125 157.75 C-117.91187654 152.87326265 -124.49976168 146.97071857 -130.96875 140.59375 C-131.69964844 139.87574219 -132.43054688 139.15773437 -133.18359375 138.41796875 C-150.04630632 120.68707691 -157.54730356 95.70466996 -157.38842773 71.64477539 C-156.59450626 43.37759703 -143.98126441 20.89309719 -123.84375 1.53125 C-89.24457818 -29.12198011 -35.56582897 -29.13702023 0 0 Z M-85.96875 54.59375 C-91.92559175 63.36601447 -92.77735965 71.05904681 -91.96875 81.59375 C-89.78497185 90.84049063 -84.80976899 97.02513233 -76.84375 101.96875 C-68.98333088 106.54787267 -59.92012226 106.99926976 -51.07421875 104.91015625 C-41.19069214 101.25127774 -35.5730873 94.95693257 -30.96875 85.59375 C-28.19408423 77.4547304 -29.09938297 67.44811893 -32.71875 59.76953125 C-37.054743 52.22219344 -43.52377726 46.7908998 -51.859375 43.94921875 C-65.15093706 41.7093444 -76.93135706 44.31120515 -85.96875 54.59375 Z " fill="#F9D56F" transform="translate(316.96875,93.40625)"/>
<path d="M0 0 C4.32920662 1.66235551 7.22573553 4.95255823 10.42089844 8.17797852 C11.05546463 8.81064636 11.69003082 9.44331421 12.34382629 10.09515381 C14.43725858 12.18488508 16.52341051 14.28172265 18.609375 16.37890625 C20.06060945 17.83133268 21.51221362 19.28338979 22.96417236 20.73509216 C26.00347502 23.77595836 29.03938895 26.8201543 32.07275391 29.86694336 C35.97080802 33.78202489 39.87545065 37.6904533 43.78240585 41.59665012 C46.77827961 44.59279504 49.77154582 47.59153324 52.76392365 50.59116936 C54.20350995 52.03394813 55.64371183 53.47611296 57.08452606 54.91766548 C59.09111329 56.92640802 61.09438032 58.93840057 63.09667969 60.95141602 C63.69819351 61.55247665 64.29970734 62.15353729 64.91944885 62.77281189 C69 66.88552386 69 66.88552386 69 68 C59.76 68 50.52 68 41 68 C41 99.68 41 131.36 41 164 C14.6 164 -11.8 164 -39 164 C-39 132.32 -39 100.64 -39 68 C-48.24 68 -57.48 68 -67 68 C-63.00854857 63.34330667 -59.05190952 58.91000133 -54.71923828 54.60571289 C-54.12339432 54.0097229 -53.52755035 53.41373291 -52.91365051 52.79968262 C-50.96823528 50.85495705 -49.01931586 48.9137852 -47.0703125 46.97265625 C-45.71103383 45.61524512 -44.3519776 44.25761121 -42.99313354 42.89976501 C-39.43454553 39.34497567 -35.87296355 35.79320107 -32.31072998 32.24206543 C-28.6688668 28.61047362 -25.02987037 24.97601168 -21.390625 21.34179688 C-14.26320489 14.22506729 -7.13261559 7.11152223 0 0 Z " fill="#000000" transform="translate(255,340)"/>
<path d="M0 0 C14.83045523 12.68997716 27.1182552 29.40526086 32.03125 48.59375 C32.30839844 49.63144531 32.58554687 50.66914063 32.87109375 51.73828125 C38.99851816 77.80101274 33.69053473 103.99399146 20.12255859 126.86572266 C17.20311381 131.48850345 13.71008929 135.5666557 10.03125 139.59375 C9.33386719 140.37234375 8.63648438 141.1509375 7.91796875 141.953125 C-4.9616375 155.60974589 -21.84083828 164.28891178 -39.96875 168.59375 C-40.82210937 168.81933594 -41.67546875 169.04492188 -42.5546875 169.27734375 C-65.60117555 174.54822824 -89.98506436 169.26359273 -110.20703125 157.75 C-117.91187654 152.87326265 -124.49976168 146.97071857 -130.96875 140.59375 C-131.69964844 139.87574219 -132.43054688 139.15773437 -133.18359375 138.41796875 C-150.04630632 120.68707691 -157.54730356 95.70466996 -157.38842773 71.64477539 C-156.59450626 43.37759703 -143.98126441 20.89309719 -123.84375 1.53125 C-89.24457818 -29.12198011 -35.56582897 -29.13702023 0 0 Z M-111.96875 12.59375 C-112.73445313 13.18542969 -113.50015625 13.77710937 -114.2890625 14.38671875 C-129.09853031 26.48713757 -138.76781765 45.72861561 -140.96875 64.59375 C-142.77377359 87.0161542 -137.21701171 107.94205736 -122.96875 125.59375 C-122.47632813 126.23828125 -121.98390625 126.8828125 -121.4765625 127.546875 C-111.22218999 140.40829137 -95.72067534 148.74624224 -79.96875 152.59375 C-79.28941406 152.76817627 -78.61007813 152.94260254 -77.91015625 153.12231445 C-57.35191868 158.12532632 -35.87091592 153.41831544 -17.96875 142.59375 C-14.81500262 140.41682703 -11.88020912 138.08150405 -8.96875 135.59375 C-7.4528125 134.4490625 -7.4528125 134.4490625 -5.90625 133.28125 C5.93924401 122.44388314 12.67966518 108.78355171 17.03125 93.59375 C17.39992188 92.33304687 17.76859375 91.07234375 18.1484375 89.7734375 C22.65163521 71.26946993 17.88233162 51.01270348 9.03125 34.59375 C6.59859718 30.70819648 3.93537756 27.13678563 1.03125 23.59375 C0.48984375 22.88992187 -0.0515625 22.18609375 -0.609375 21.4609375 C-12.26639701 7.0311287 -29.29402453 -0.48789608 -46.96875 -4.40625 C-48.144375 -4.69628906 -48.144375 -4.69628906 -49.34375 -4.9921875 C-71.96688005 -8.56071694 -94.44536149 -1.8224562 -111.96875 12.59375 Z " fill="#030301" transform="translate(316.96875,93.40625)"/>
<path d="M0 0 C26.4 0 52.8 0 80 0 C80 26.4 80 52.8 80 80 C53.6 80 27.2 80 0 80 C0 53.6 0 27.2 0 0 Z " fill="#E6E9ED" transform="translate(376,360)"/>
<path d="M0 0 C26.4 0 52.8 0 80 0 C80 26.4 80 52.8 80 80 C53.6 80 27.2 80 0 80 C0 53.6 0 27.2 0 0 Z " fill="#E6E9ED" transform="translate(56,360)"/>
<path d="M0 0 C4.08923295 2.04461648 6.7169902 4.46003283 9.859375 7.6640625 C10.683237 8.49216934 10.683237 8.49216934 11.52374268 9.33700562 C13.27059293 11.09501815 15.01034601 12.8598689 16.75 14.625 C17.93573591 15.8207708 19.1219288 17.01608865 20.30859375 18.2109375 C23.21105085 21.13540253 26.1071641 24.06601874 29 27 C27.68 27.33 26.36 27.66 25 28 C25 59.68 25 91.36 25 124 C9.16 124 -6.68 124 -23 124 C-23 92.32 -23 60.64 -23 28 C-24.32 27.67 -25.64 27.34 -27 27 C-18.09 18.09 -9.18 9.18 0 0 Z " fill="#FE816D" transform="translate(255,364)"/>
<path d="M0 0 C5.28 0 10.56 0 16 0 C16 26.4 16 52.8 16 80 C52.96 80 89.92 80 128 80 C128 53.6 128 27.2 128 0 C133.28 0 138.56 0 144 0 C144 31.68 144 63.36 144 96 C119.875 96 119.875 96 112.28857422 95.9375 C110.29391495 95.95518959 108.29927871 95.97582517 106.3046875 96 C105.27738525 95.98066406 104.25008301 95.96132813 103.19165039 95.94140625 C97.65002275 95.97477336 97.65002275 95.97477336 93.07403564 98.74658203 C91.46686507 100.83282253 91.46686507 100.83282253 90.21414185 103.00439453 C87.39735621 107.63416068 83.07310752 110.30402683 78 112 C70.9115728 112.94050361 65.05653905 112.44198313 58.97265625 108.56640625 C54.83906353 105.28408807 51.90841626 101.36262439 49 97 C46.82584957 96.52427183 46.82584957 96.52427183 44.27490234 96.56762695 C43.28031006 96.54768677 42.28571777 96.52774658 41.26098633 96.50720215 C39.68933716 96.4978363 39.68933716 96.4978363 38.0859375 96.48828125 C37.12469971 96.47164429 36.16346191 96.45500732 35.1730957 96.43786621 C31.57395425 96.37992522 27.97443492 96.34777962 24.375 96.3125 C12.309375 96.1578125 12.309375 96.1578125 0 96 C0 64.32 0 32.64 0 0 Z " fill="#B3DC7E" transform="translate(344,376)"/>
<path d="M0 0 C5.28 0 10.56 0 16 0 C16 26.4 16 52.8 16 80 C52.96 80 89.92 80 128 80 C128 53.6 128 27.2 128 0 C133.28 0 138.56 0 144 0 C144 31.68 144 63.36 144 96 C119.875 96 119.875 96 112.28857422 95.9375 C110.29391495 95.95518959 108.29927871 95.97582517 106.3046875 96 C105.27738525 95.98066406 104.25008301 95.96132813 103.19165039 95.94140625 C97.65002275 95.97477336 97.65002275 95.97477336 93.07403564 98.74658203 C91.46686507 100.83282253 91.46686507 100.83282253 90.21414185 103.00439453 C87.39735621 107.63416068 83.07310752 110.30402683 78 112 C70.9115728 112.94050361 65.05653905 112.44198313 58.97265625 108.56640625 C54.83906353 105.28408807 51.90841626 101.36262439 49 97 C46.82584957 96.52427183 46.82584957 96.52427183 44.27490234 96.56762695 C43.28031006 96.54768677 42.28571777 96.52774658 41.26098633 96.50720215 C39.68933716 96.4978363 39.68933716 96.4978363 38.0859375 96.48828125 C37.12469971 96.47164429 36.16346191 96.45500732 35.1730957 96.43786621 C31.57395425 96.37992522 27.97443492 96.34777962 24.375 96.3125 C12.309375 96.1578125 12.309375 96.1578125 0 96 C0 64.32 0 32.64 0 0 Z " fill="#B3DC7E" transform="translate(24,376)"/>
<path d="M0 0 C9.90782547 7.37711212 18.07480932 17.89456157 20.12890625 30.37890625 C21.49538613 45.6885419 18.94797401 59.18648799 9.21875 71.40625 C0.27759828 81.12553151 -11.50806206 87.04025013 -24.7109375 87.953125 C-39.92903227 88.41807267 -51.3682185 83.45891506 -62.3671875 73.125 C-72.22952863 62.87622983 -76.02865441 50.13982375 -75.87109375 36.1484375 C-75.08501123 23.45466051 -69.28821817 12.39159777 -60.0859375 3.74609375 C-42.49466141 -10.78582998 -19.32056806 -12.58811728 0 0 Z M-52.66015625 19.7421875 C-58.616998 28.51445197 -59.4687659 36.20748431 -58.66015625 46.7421875 C-56.4763781 55.98892813 -51.50117524 62.17356983 -43.53515625 67.1171875 C-35.67473713 71.69631017 -26.61152851 72.14770726 -17.765625 70.05859375 C-7.88209839 66.39971524 -2.26449355 60.10537007 2.33984375 50.7421875 C5.11450952 42.6031679 4.20921078 32.59655643 0.58984375 24.91796875 C-3.74614925 17.37063094 -10.21518351 11.9393373 -18.55078125 9.09765625 C-31.84234331 6.8577819 -43.62276331 9.45964265 -52.66015625 19.7421875 Z " fill="#020100" transform="translate(283.66015625,128.2578125)"/>
<path d="M0 0 C15.84 0 31.68 0 48 0 C48 5.28 48 10.56 48 16 C32.16 16 16.32 16 0 16 C0 10.72 0 5.44 0 0 Z " fill="#000000" transform="translate(392,408)"/>
<path d="M0 0 C15.84 0 31.68 0 48 0 C48 5.28 48 10.56 48 16 C32.16 16 16.32 16 0 16 C0 10.72 0 5.44 0 0 Z " fill="#000000" transform="translate(72,408)"/>
<path d="M0 0 C15.84 0 31.68 0 48 0 C48 5.28 48 10.56 48 16 C32.16 16 16.32 16 0 16 C0 10.72 0 5.44 0 0 Z " fill="#000000" transform="translate(392,376)"/>
<path d="M0 0 C15.84 0 31.68 0 48 0 C48 5.28 48 10.56 48 16 C32.16 16 16.32 16 0 16 C0 10.72 0 5.44 0 0 Z " fill="#000000" transform="translate(72,376)"/>
<path d="M0 0 C3.45201639 1.47721422 5.64961936 3.43794001 8.25 6.125 C8.95640625 6.84945312 9.6628125 7.57390625 10.390625 8.3203125 C11.18726563 9.15175781 11.18726563 9.15175781 12 10 C10.52278578 13.45201639 8.56205999 15.64961936 5.875 18.25 C5.15054688 18.95640625 4.42609375 19.6628125 3.6796875 20.390625 C3.12539062 20.92171875 2.57109375 21.4528125 2 22 C-1.45201639 20.52278578 -3.64961936 18.56205999 -6.25 15.875 C-6.95640625 15.15054687 -7.6628125 14.42609375 -8.390625 13.6796875 C-8.92171875 13.12539062 -9.4528125 12.57109375 -10 12 C-8.52278578 8.54798361 -6.56205999 6.35038064 -3.875 3.75 C-3.15054688 3.04359375 -2.42609375 2.3371875 -1.6796875 1.609375 C-1.12539062 1.07828125 -0.57109375 0.5471875 0 0 Z " fill="#0B0801" transform="translate(170,242)"/>
<path d="M0 0 C3.45201639 1.47721422 5.64961936 3.43794001 8.25 6.125 C8.95640625 6.84945312 9.6628125 7.57390625 10.390625 8.3203125 C11.18726563 9.15175781 11.18726563 9.15175781 12 10 C10.52278578 13.45201639 8.56205999 15.64961936 5.875 18.25 C5.15054688 18.95640625 4.42609375 19.6628125 3.6796875 20.390625 C3.12539062 20.92171875 2.57109375 21.4528125 2 22 C-1.45201639 20.52278578 -3.64961936 18.56205999 -6.25 15.875 C-6.95640625 15.15054688 -7.6628125 14.42609375 -8.390625 13.6796875 C-8.92171875 13.12539062 -9.4528125 12.57109375 -10 12 C-8.52278578 8.54798361 -6.56205999 6.35038064 -3.875 3.75 C-3.15054688 3.04359375 -2.42609375 2.3371875 -1.6796875 1.609375 C-1.12539062 1.07828125 -0.57109375 0.5471875 0 0 Z " fill="#0A0801" transform="translate(170,72)"/>
<path d="M0 0 C5.28 0 10.56 0 16 0 C16 5.28 16 10.56 16 16 C10.72 16 5.44 16 0 16 C0 10.72 0 5.44 0 0 Z " fill="#000000" transform="translate(248,280)"/>
<path d="M0 0 C5.28 0 10.56 0 16 0 C16 5.28 16 10.56 16 16 C10.72 16 5.44 16 0 16 C0 10.72 0 5.44 0 0 Z " fill="#000000" transform="translate(368,160)"/>
<path d="M0 0 C5.28 0 10.56 0 16 0 C16 5.28 16 10.56 16 16 C10.72 16 5.44 16 0 16 C0 10.72 0 5.44 0 0 Z " fill="#000000" transform="translate(128,160)"/>
<path d="M0 0 C5.28 0 10.56 0 16 0 C16 5.28 16 10.56 16 16 C10.72 16 5.44 16 0 16 C0 10.72 0 5.44 0 0 Z " fill="#000000" transform="translate(248,40)"/>
<path d="M0 0 C3.39859703 1.46966358 5.64963709 3.38037514 8.25 6 C8.95640625 6.70125 9.6628125 7.4025 10.390625 8.125 C12 10 12 10 12 12 C10.390625 13.62109375 10.390625 13.62109375 8.25 15.4375 C7.55390625 16.03433594 6.8578125 16.63117188 6.140625 17.24609375 C4.13831164 18.88667532 2.07086713 20.44684965 0 22 C-3.3 18.7 -6.6 15.4 -10 12 C-8.16614077 8.33228155 -6.74937171 6.53165004 -3.875 3.75 C-3.15054687 3.04359375 -2.42609375 2.3371875 -1.6796875 1.609375 C-1.12539063 1.07828125 -0.57109375 0.5471875 0 0 Z " fill="#060501" transform="translate(340,242)"/>
<path d="M0 0 C0.44730469 0.38671875 0.89460938 0.7734375 1.35546875 1.171875 C4.8521026 4.18390075 8.37407463 7.14321031 12 10 C10.52278578 13.45201639 8.56205999 15.64961936 5.875 18.25 C5.15054687 18.95640625 4.42609375 19.6628125 3.6796875 20.390625 C3.12539063 20.92171875 2.57109375 21.4528125 2 22 C-1.45201639 20.52278578 -3.64961936 18.56205999 -6.25 15.875 C-6.95640625 15.15054688 -7.6628125 14.42609375 -8.390625 13.6796875 C-8.92171875 13.12539062 -9.4528125 12.57109375 -10 12 C-8.52278578 8.54798361 -6.56205999 6.35038064 -3.875 3.75 C-3.15054687 3.04359375 -2.42609375 2.3371875 -1.6796875 1.609375 C-1.12539063 1.07828125 -0.57109375 0.5471875 0 0 Z " fill="#060501" transform="translate(340,72)"/>
</svg>
